<?xml version="1.0" standalone="no"?><!-- Generator: Gravit.io --><svg xmlns="http://www.w3.org/2000/svg" xmlns:xlink="http://www.w3.org/1999/xlink" style="isolation:isolate" viewBox="0 0 708.661 411.024" width="708.661" height="411.024"><defs><clipPath id="_clipPath_yQHSEfb1o11dbX1TjJooHIE6LQLHmiD0"><rect width="708.661" height="411.024"/></clipPath></defs><g clip-path="url(#_clipPath_yQHSEfb1o11dbX1TjJooHIE6LQLHmiD0)"><g><path d="M 494.185 259.613 L 639.491 259.613 C 646.806 259.613 652.745 265.552 652.745 272.867 L 652.745 297.561 C 652.745 304.876 646.806 310.815 639.491 310.815 L 494.185 310.815 C 486.87 310.815 480.931 304.876 480.931 297.561 L 480.931 272.867 C 480.931 265.552 486.87 259.613 494.185 259.613 Z" style="fill:none;stroke:#227093;stroke-width:4;stroke-linecap:square;stroke-miterlimit:2;"/><g transform="matrix(1,0,0,1,489.838,271.112)"><text transform="matrix(1,0,0,1,0,22.012)" style="font-family:'Arial Black';font-weight:400;font-size:20px;font-style:normal;fill:#227093;stroke:none;">CONSUMER C</text></g><g transform="matrix(1,0,0,1,480.931,321.715)"><text transform="matrix(1,0,0,1,0,10)" style="font-family:'Monaco';font-weight:400;font-size:10px;font-style:normal;fill:#000000;stroke:none;">{  </text><text transform="matrix(1,0,0,1,12.002,22.5)" style="font-family:'Monaco';font-weight:400;font-size:10px;font-style:normal;fill:#c44569;stroke:none;">"consumer_id"</text><text transform="matrix(1,0,0,1,90.002,22.5)" style="font-family:'Monaco';font-weight:400;font-size:10px;font-style:normal;fill:#000000;stroke:none;">: </text><text transform="matrix(1,0,0,1,102.003,22.5)" style="font-family:'Monaco';font-weight:400;font-size:10px;font-style:normal;fill:#218c74;stroke:none;">"bfbe5cdf-966e"</text><text transform="matrix(1,0,0,1,192.003,22.5)" style="font-family:'Monaco';font-weight:400;font-size:10px;font-style:normal;fill:#000000;stroke:none;">,  </text><text transform="matrix(1,0,0,1,12.002,35)" style="font-family:'Monaco';font-weight:400;font-size:10px;font-style:normal;fill:#c44569;stroke:none;">"name"</text><text transform="matrix(1,0,0,1,48.002,35)" style="font-family:'Monaco';font-weight:400;font-size:10px;font-style:normal;fill:#000000;stroke:none;">: </text><text transform="matrix(1,0,0,1,60.003,35)" style="font-family:'Monaco';font-weight:400;font-size:10px;font-style:normal;fill:#218c74;stroke:none;">"John Doe"</text><text transform="matrix(1,0,0,1,120.004,35)" style="font-family:'Monaco';font-weight:400;font-size:10px;font-style:normal;fill:#000000;stroke:none;">,  </text><text transform="matrix(1,0,0,1,12.002,47.5)" style="font-family:'Monaco';font-weight:400;font-size:10px;font-style:normal;text-decoration:line-through;fill:#ff5252;stroke:none;">"birth_date": "1987-07-05",  </text><text transform="matrix(1,0,0,1,12.002,60)" style="font-family:'Monaco';font-weight:400;font-size:10px;font-style:normal;fill:#c44569;stroke:none;">"details"</text><text transform="matrix(1,0,0,1,66.002,60)" style="font-family:'Monaco';font-weight:400;font-size:10px;font-style:normal;fill:#000000;stroke:none;">: </text><text transform="matrix(1,0,0,1,78.003,60)" style="font-family:'Monaco';font-weight:400;font-size:10px;font-style:normal;fill:#218c74;stroke:none;">"..."</text><text transform="matrix(1,0,0,1,0,72.5)" style="font-family:'Monaco';font-weight:400;font-size:10px;font-style:normal;fill:#000000;stroke:none;">}</text></g></g><g><path d="M 269.585 259.613 L 414.891 259.613 C 422.206 259.613 428.145 265.552 428.145 272.867 L 428.145 297.561 C 428.145 304.876 422.206 310.815 414.891 310.815 L 269.585 310.815 C 262.27 310.815 256.331 304.876 256.331 297.561 L 256.331 272.867 C 256.331 265.552 262.27 259.613 269.585 259.613 Z" style="fill:none;stroke:#227093;stroke-width:4;stroke-linecap:square;stroke-miterlimit:2;"/><g transform="matrix(1,0,0,1,265.238,271.112)"><text transform="matrix(1,0,0,1,0,22.012)" style="font-family:'Arial Black';font-weight:400;font-size:20px;font-style:normal;fill:#227093;stroke:none;">CONSUMER B</text></g><g transform="matrix(1,0,0,1,256.331,325.936)"><text transform="matrix(1,0,0,1,0,10)" style="font-family:'Monaco';font-weight:400;font-size:10px;font-style:normal;fill:#000000;stroke:none;">{  </text><text transform="matrix(1,0,0,1,12.002,22.5)" style="font-family:'Monaco';font-weight:400;font-size:10px;font-style:normal;fill:#c44569;stroke:none;">"consumer_id"</text><text transform="matrix(1,0,0,1,90.002,22.5)" style="font-family:'Monaco';font-weight:400;font-size:10px;font-style:normal;fill:#000000;stroke:none;">: </text><text transform="matrix(1,0,0,1,102.003,22.5)" style="font-family:'Monaco';font-weight:400;font-size:10px;font-style:normal;fill:#218c74;stroke:none;">"bfbe5cdf-966e"</text><text transform="matrix(1,0,0,1,192.003,22.5)" style="font-family:'Monaco';font-weight:400;font-size:10px;font-style:normal;fill:#000000;stroke:none;">,  </text><text transform="matrix(1,0,0,1,12.002,35)" style="font-family:'Monaco';font-weight:400;font-size:10px;font-style:normal;fill:#c44569;stroke:none;">"name"</text><text transform="matrix(1,0,0,1,48.002,35)" style="font-family:'Monaco';font-weight:400;font-size:10px;font-style:normal;fill:#000000;stroke:none;">: </text><text transform="matrix(1,0,0,1,60.003,35)" style="font-family:'Monaco';font-weight:400;font-size:10px;font-style:normal;fill:#218c74;stroke:none;">"John Doe"</text><text transform="matrix(1,0,0,1,0,47.5)" style="font-family:'Monaco';font-weight:400;font-size:10px;font-style:normal;fill:#000000;stroke:none;">}</text></g></g><g><path d="M 44.985 259.613 L 190.291 259.613 C 197.606 259.613 203.545 265.552 203.545 272.867 L 203.545 297.561 C 203.545 304.876 197.606 310.815 190.291 310.815 L 44.985 310.815 C 37.67 310.815 31.731 304.876 31.731 297.561 L 31.731 272.867 C 31.731 265.552 37.67 259.613 44.985 259.613 Z" style="fill:none;stroke:#227093;stroke-width:4;stroke-linecap:square;stroke-miterlimit:2;"/><g transform="matrix(1,0,0,1,40.638,271.112)"><text transform="matrix(1,0,0,1,0,22.012)" style="font-family:'Arial Black';font-weight:400;font-size:20px;font-style:normal;fill:#227093;stroke:none;">CONSUMER A</text></g><g transform="matrix(1,0,0,1,31.731,325.936)"><text transform="matrix(1,0,0,1,0,10)" style="font-family:'Monaco';font-weight:400;font-size:10px;font-style:normal;fill:#000000;stroke:none;">{  </text><text transform="matrix(1,0,0,1,12.002,22.5)" style="font-family:'Monaco';font-weight:400;font-size:10px;font-style:normal;fill:#c44569;stroke:none;">"consumer_id"</text><text transform="matrix(1,0,0,1,90.002,22.5)" style="font-family:'Monaco';font-weight:400;font-size:10px;font-style:normal;fill:#000000;stroke:none;">: </text><text transform="matrix(1,0,0,1,102.003,22.5)" style="font-family:'Monaco';font-weight:400;font-size:10px;font-style:normal;fill:#218c74;stroke:none;">"bfbe5cdf-966e"</text><text transform="matrix(1,0,0,1,192.003,22.5)" style="font-family:'Monaco';font-weight:400;font-size:10px;font-style:normal;fill:#000000;stroke:none;">,  </text><text transform="matrix(1,0,0,1,12.002,35)" style="font-family:'Monaco';font-weight:400;font-size:10px;font-style:normal;fill:#c44569;stroke:none;">"name"</text><text transform="matrix(1,0,0,1,48.002,35)" style="font-family:'Monaco';font-weight:400;font-size:10px;font-style:normal;fill:#000000;stroke:none;">: </text><text transform="matrix(1,0,0,1,60.003,35)" style="font-family:'Monaco';font-weight:400;font-size:10px;font-style:normal;fill:#218c74;stroke:none;">"John Doe"</text><text transform="matrix(1,0,0,1,120.004,35)" style="font-family:'Monaco';font-weight:400;font-size:10px;font-style:normal;fill:#000000;stroke:none;">,  </text><text transform="matrix(1,0,0,1,12.002,47.5)" style="font-family:'Monaco';font-weight:400;font-size:10px;font-style:normal;fill:#c44569;stroke:none;">"date_of_birth"</text><text transform="matrix(1,0,0,1,102.002,47.5)" style="font-family:'Monaco';font-weight:400;font-size:10px;font-style:normal;fill:#0f0f0f;stroke:none;">: </text><text transform="matrix(1,0,0,1,114.003,47.5)" style="font-family:'Monaco';font-weight:400;font-size:10px;font-style:normal;fill:#218c74;stroke:none;">"1987-07-05"</text><text transform="matrix(1,0,0,1,0,60)" style="font-family:'Monaco';font-weight:400;font-size:10px;font-style:normal;fill:#000000;stroke:none;">}</text></g></g><g><path d="M 269.585 42.697 L 414.891 42.697 C 422.206 42.697 428.145 48.636 428.145 55.951 L 428.145 80.646 C 428.145 87.961 422.206 93.9 414.891 93.9 L 269.585 93.9 C 262.27 93.9 256.331 87.961 256.331 80.646 L 256.331 55.951 C 256.331 48.636 262.27 42.697 269.585 42.697 Z" style="fill:none;stroke:#218C74;stroke-width:4;stroke-linecap:square;stroke-miterlimit:2;"/><g transform="matrix(1,0,0,1,272.238,54.197)"><text transform="matrix(1,0,0,1,0,22.012)" style="font-family:'Arial Black';font-weight:400;font-size:20px;font-style:normal;fill:#218c74;stroke:none;">PROVIDER A</text></g><g transform="matrix(1,0,0,1,446.897,30.798)"><text transform="matrix(1,0,0,1,0,10)" style="font-family:'Monaco';font-weight:400;font-size:10px;font-style:normal;fill:#000000;stroke:none;">{  </text><text transform="matrix(1,0,0,1,12.002,22.5)" style="font-family:'Monaco';font-weight:400;font-size:10px;font-style:normal;fill:#c44569;stroke:none;">"consumer_id"</text><text transform="matrix(1,0,0,1,90.002,22.5)" style="font-family:'Monaco';font-weight:400;font-size:10px;font-style:normal;fill:#000000;stroke:none;">: </text><text transform="matrix(1,0,0,1,102.003,22.5)" style="font-family:'Monaco';font-weight:400;font-size:10px;font-style:normal;fill:#218c74;stroke:none;">"bfbe5cdf-966e"</text><text transform="matrix(1,0,0,1,192.003,22.5)" style="font-family:'Monaco';font-weight:400;font-size:10px;font-style:normal;fill:#000000;stroke:none;">,  </text><text transform="matrix(1,0,0,1,12.002,35)" style="font-family:'Monaco';font-weight:400;font-size:10px;font-style:normal;fill:#c44569;stroke:none;">"name"</text><text transform="matrix(1,0,0,1,48.002,35)" style="font-family:'Monaco';font-weight:400;font-size:10px;font-style:normal;fill:#000000;stroke:none;">: </text><text transform="matrix(1,0,0,1,60.003,35)" style="font-family:'Monaco';font-weight:400;font-size:10px;font-style:normal;fill:#218c74;stroke:none;">"John Doe"</text><text transform="matrix(1,0,0,1,120.004,35)" style="font-family:'Monaco';font-weight:400;font-size:10px;font-style:normal;fill:#000000;stroke:none;">,  </text><text transform="matrix(1,0,0,1,12.002,47.5)" style="font-family:'Monaco';font-weight:400;font-size:10px;font-style:normal;text-decoration:underline;fill:#34ace0;stroke:none;">"date_of_birth": "1987-07-05",  </text><text transform="matrix(1,0,0,1,12.002,60)" style="font-family:'Monaco';font-weight:400;font-size:10px;font-style:normal;fill:#c44569;stroke:none;">"details"</text><text transform="matrix(1,0,0,1,66.002,60)" style="font-family:'Monaco';font-weight:400;font-size:10px;font-style:normal;fill:#000000;stroke:none;">: </text><text transform="matrix(1,0,0,1,78.003,60)" style="font-family:'Monaco';font-weight:400;font-size:10px;font-style:normal;fill:#218c74;stroke:none;">"..."</text><text transform="matrix(1,0,0,1,0,72.5)" style="font-family:'Monaco';font-weight:400;font-size:10px;font-style:normal;fill:#000000;stroke:none;">}</text></g></g><line x1="392.708" y1="107.494" x2="529.086" y2="246.019" vector-effect="non-scaling-stroke" stroke-width="4" stroke="rgb(89,98,117)" stroke-linejoin="miter" stroke-linecap="square" stroke-miterlimit="3"/><line x1="342.238" y1="107.494" x2="342.238" y2="246.019" vector-effect="non-scaling-stroke" stroke-width="4" stroke="rgb(89,98,117)" stroke-linejoin="miter" stroke-linecap="square" stroke-miterlimit="3"/><line x1="296.21" y1="107.494" x2="150.168" y2="246.019" vector-effect="non-scaling-stroke" stroke-width="4" stroke="rgb(89,98,117)" stroke-linejoin="miter" stroke-linecap="square" stroke-miterlimit="3"/><g><circle vector-effect="non-scaling-stroke" cx="-19.281481997238757" cy="163.37263864128" r="15.03374578177727" fill="rgb(255,82,82)"/><path d=" M -23.092 163.373 L -28.703 168.984 L -24.893 172.795 L -19.281 167.183 L -13.67 172.795 L -9.86 168.984 L -15.471 163.373 L -9.86 157.761 L -13.67 153.951 L -19.281 159.563 L -24.893 153.951 L -28.703 157.761 L -23.092 163.373 Z " fill="rgb(255,255,255)"/></g><g><circle vector-effect="non-scaling-stroke" cx="192.27631367507632" cy="191.78986604945845" r="15.03374578177727" fill="rgb(51,217,178)"/><path d=" M 189.173 193.581 L 184.222 188.631 L 180.435 192.419 L 189.173 201.156 L 189.218 201.111 L 192.96 197.369 L 192.96 197.369 L 204.118 186.211 L 200.33 182.423 L 189.173 193.581 Z " fill="rgb(255,255,255)"/></g><g><circle vector-effect="non-scaling-stroke" cx="491.2763136750763" cy="191.78986604945845" r="15.03374578177727" fill="rgb(255,82,82)"/><path d=" M 487.466 191.79 L 481.854 197.402 L 485.664 201.212 L 491.276 195.6 L 496.888 201.212 L 500.698 197.402 L 495.086 191.79 L 500.698 186.178 L 496.888 182.368 L 491.276 187.98 L 485.664 182.368 L 481.854 186.178 L 487.466 191.79 Z " fill="rgb(255,255,255)"/></g><g><circle vector-effect="non-scaling-stroke" cx="-19.281481997238757" cy="191.78986604945845" r="15.03374578177727" fill="rgb(51,217,178)"/><path d=" M -22.385 193.581 L -27.335 188.631 L -31.123 192.419 L -22.385 201.156 L -22.34 201.111 L -18.598 197.369 L -18.598 197.369 L -7.44 186.211 L -11.228 182.423 L -22.385 193.581 Z " fill="rgb(255,255,255)"/></g><g><circle vector-effect="non-scaling-stroke" cx="331.2763136750763" cy="191.78986294400187" r="15.03374578177727" fill="rgb(51,217,178)"/><path d=" M 328.173 193.581 L 323.222 188.631 L 319.435 192.419 L 328.173 201.156 L 328.218 201.111 L 331.96 197.369 L 331.96 197.369 L 343.118 186.211 L 339.33 182.423 L 328.173 193.581 Z " fill="rgb(255,255,255)"/></g><g transform="matrix(1,0,0,1,448.897,6)"><text transform="matrix(1,0,0,1,0,13.207)" style="font-family:'Arial Black';font-weight:400;font-size:12px;font-style:normal;fill:#84817a;stroke:none;">GET /consumers/bfbe5cdf-966e</text></g></g></svg>