<?xml version="1.0" standalone="no"?><!-- Generator: Gravit.io --><svg xmlns="http://www.w3.org/2000/svg" xmlns:xlink="http://www.w3.org/1999/xlink" style="isolation:isolate" viewBox="0 0 400 500" width="400" height="500"><defs><clipPath id="_clipPath_w9DKlE0QMS0lfJE3Py25ZWxBRjkgmh2x"><rect width="400" height="500"/></clipPath></defs><g clip-path="url(#_clipPath_w9DKlE0QMS0lfJE3Py25ZWxBRjkgmh2x)"><path d="M 41.758 0 L 358.242 0 C 381.289 0 400 18.711 400 41.758 L 400 358.242 C 400 381.289 381.289 400 358.242 400 L 41.758 400 C 18.711 400 0 381.289 0 358.242 L 0 41.758 C 0 18.711 18.711 0 41.758 0 Z" style="stroke:none;fill:#F6B93B;stroke-miterlimit:10;"/><path d=" M 373.491 2.873 C 368.765 1.019 363.622 0 358.242 0 L 41.758 0 C 18.711 0 0 18.711 0 41.758 L 0 358.242 C 0 365.036 1.626 371.454 4.509 377.127 C 9.235 378.98 14.379 380 19.758 380 L 336.242 380 C 359.289 380 378 361.289 378 338.242 L 378 21.758 C 378 14.964 376.374 8.546 373.491 2.873 Z " fill="rgb(255,255,255)" fill-opacity="0.45"/><g><path d=" M 282.257 168.066 L 282.051 167.806 C 279.714 164.863 275.816 163.649 272.221 164.744 L 199.222 208.429 C 200.894 216.006 209.217 220.021 216.188 216.612 L 246.958 201.563 L 242.024 226.218 L 272.221 229.708 L 286.231 191.86 C 289.096 183.772 287.593 174.782 282.257 168.066 L 282.257 168.066 Z " fill="rgb(253,182,89)"/><path d=" M 279.037 173.583 C 281.333 172.883 283.752 173.13 285.811 174.164 C 284.93 172.002 283.749 169.943 282.257 168.066 L 282.053 167.806 C 279.714 164.863 275.816 163.649 272.221 164.744 L 199.222 208.429 C 200.128 212.531 202.982 215.583 206.513 216.986 L 279.037 173.583 Z " fill="rgb(253,158,40)"/><path d=" M 242.024 226.215 L 233.627 266.899 C 233.233 268.821 232.207 270.555 230.717 271.831 L 206.793 292.308 C 205.772 293.181 205.788 294.762 206.821 295.615 L 213.041 300.745 C 213.914 301.465 215.139 301.57 216.122 301.007 L 245.272 284.308 C 248.376 282.468 251.215 281.07 252.63 277.992 L 272.221 229.708 L 242.024 226.215 Z " fill="rgb(56,98,124)"/><path d=" M 242.024 226.215 L 241.553 228.305 C 238.523 241.725 244.593 255.552 256.52 262.406 L 274.041 272.475 C 277.868 274.674 280.065 278.901 279.665 283.298 L 277.784 303.978 C 277.741 304.47 278.128 304.892 278.619 304.892 L 290.338 304.892 C 290.727 304.892 291.066 304.625 291.155 304.245 L 298.452 273.111 C 299.317 270.596 299.014 267.823 297.627 265.555 L 272.219 229.708 L 242.024 226.215 Z " fill="rgb(79,118,147)"/><path d=" M 310.145 172.224 L 299.783 178.207 C 294.916 181.017 288.688 179.35 285.877 174.479 L 283.51 170.378 C 280.697 165.507 282.367 159.283 287.234 156.472 L 297.596 150.489 C 302.467 147.678 308.694 149.346 311.505 154.216 L 313.873 158.318 C 316.683 163.186 315.016 169.41 310.145 172.224 Z " fill="rgb(254,223,197)"/><path d=" M 131.418 168.066 L 131.212 167.806 C 128.875 164.863 124.977 163.649 121.382 164.744 L 48.383 208.429 C 50.056 216.006 58.378 220.021 65.346 216.612 L 96.119 201.563 L 91.185 226.218 L 121.382 229.708 L 135.393 191.86 C 138.257 183.772 136.755 174.782 131.418 168.066 Z " fill="rgb(131,217,255)"/><path d=" M 55.198 215.851 L 128.195 172.165 C 130.201 171.554 132.297 171.664 134.168 172.387 C 133.407 170.872 132.495 169.421 131.418 168.064 L 131.212 167.806 C 128.875 164.863 124.977 163.649 121.382 164.744 L 48.383 208.429 C 49.271 212.46 52.041 215.479 55.489 216.912 C 55.379 216.566 55.277 216.215 55.198 215.851 Z " fill="rgb(67,163,249)"/><path d=" M 91.182 226.215 L 82.789 266.899 C 82.391 268.821 81.368 270.555 79.876 271.831 L 55.952 292.308 C 54.934 293.181 54.949 294.762 55.982 295.615 L 62.202 300.745 C 63.073 301.465 64.3 301.57 65.28 301.007 L 94.431 284.308 C 97.537 282.468 100.376 281.07 101.791 277.992 L 121.382 229.708 L 91.182 226.215 Z " fill="rgb(56,98,124)"/><path d=" M 91.182 226.215 L 90.711 228.305 C 87.684 241.725 93.754 255.552 105.679 262.406 L 123.2 272.475 C 127.027 274.674 129.224 278.901 128.824 283.298 L 126.945 303.978 C 126.899 304.47 127.286 304.892 127.78 304.892 L 139.499 304.892 C 139.886 304.892 140.225 304.625 140.314 304.245 L 147.61 273.111 C 148.479 270.596 148.176 267.823 146.786 265.555 L 121.38 229.708 L 91.182 226.215 Z " fill="rgb(79,118,147)"/><path d=" M 159.307 172.224 L 148.945 178.207 C 144.074 181.017 137.849 179.35 135.036 174.479 L 132.668 170.378 C 129.858 165.507 131.528 159.283 136.396 156.472 L 146.758 150.489 C 151.628 147.678 157.853 149.346 160.666 154.216 L 163.034 158.318 C 165.844 163.186 164.174 169.41 159.307 172.224 Z " fill="rgb(254,223,197)"/><path d=" M 40.783 212.959 L 170.178 135.837 C 172.082 134.702 174.544 135.292 175.728 137.166 L 214.843 199.081 L 325.64 134.462 C 326.289 134.086 327.116 134.266 327.549 134.875 L 345.483 160.148 C 346.595 161.717 349.047 161.174 349.396 159.283 L 361.93 91.373 C 362.156 90.143 361.301 88.974 360.058 88.819 L 292.461 80.341 C 290.58 80.107 289.317 82.228 290.422 83.77 L 308.198 108.558 C 308.692 109.248 308.49 110.212 307.76 110.645 L 229.704 156.976 C 229.093 157.338 228.304 157.129 227.952 156.513 L 186.525 84.168 C 185.216 81.879 182.128 81.382 180.165 83.142 L 38.65 210.056 C 37.018 211.518 38.902 214.079 40.783 212.959 L 40.783 212.959 Z " fill="rgb(105,217,152)"/><path d=" M 350.009 140.942 L 332.078 115.671 C 331.643 115.06 330.816 114.882 330.169 115.258 L 238.2 168.896 C 227.695 175.022 214.225 171.73 207.73 161.449 L 180.257 117.96 C 179.073 116.086 176.611 115.495 174.707 116.631 L 79.644 173.29 L 38.65 210.056 C 37.018 211.518 38.902 214.079 40.783 212.959 L 170.178 135.837 C 172.082 134.702 174.544 135.292 175.728 137.166 L 214.843 199.081 L 325.64 134.462 C 326.286 134.086 327.116 134.266 327.549 134.875 L 345.48 160.148 C 346.593 161.717 349.047 161.174 349.396 159.283 L 352.642 141.678 C 351.766 142.052 350.659 141.858 350.009 140.942 L 350.009 140.942 Z " fill="rgb(61,197,161)"/><path d=" M 297.258 314.788 L 277.787 314.788 C 275.085 314.788 272.896 316.978 272.896 319.676 C 272.896 322.378 275.085 324.565 277.787 324.565 L 297.258 324.565 C 299.956 324.565 302.146 322.378 302.146 319.676 C 302.146 316.978 299.956 314.788 297.258 314.788 Z " fill="rgb(0,0,0)"/><path d=" M 212.249 314.577 L 196.561 300.847 C 194.529 299.072 191.441 299.276 189.662 301.307 C 187.885 303.339 188.091 306.427 190.122 308.207 L 205.81 321.935 C 206.737 322.744 207.885 323.144 209.029 323.144 C 210.388 323.144 211.743 322.579 212.71 321.474 C 214.487 319.442 214.281 316.356 212.249 314.577 L 212.249 314.577 Z " fill="rgb(0,0,0)"/><path d=" M 146.416 314.788 L 126.945 314.788 C 124.244 314.788 122.057 316.978 122.057 319.676 C 122.057 322.378 124.244 324.565 126.945 324.565 L 146.416 324.565 C 149.118 324.565 151.307 322.378 151.307 319.676 C 151.307 316.978 149.118 314.788 146.416 314.788 Z " fill="rgb(0,0,0)"/><path d=" M 61.41 314.577 L 45.722 300.847 C 43.691 299.072 40.602 299.276 38.823 301.307 C 37.046 303.339 37.252 306.427 39.284 308.207 L 54.972 321.935 C 55.898 322.744 57.047 323.144 58.19 323.144 C 59.549 323.144 60.904 322.579 61.869 321.474 C 63.648 319.442 63.442 316.356 61.41 314.577 L 61.41 314.577 Z " fill="rgb(0,0,0)"/><path d=" M 365.489 86.805 C 364.346 85.244 362.586 84.208 360.667 83.969 L 293.07 75.491 C 290.282 75.14 287.555 76.476 286.122 78.887 C 284.686 81.301 284.813 84.336 286.45 86.617 L 302.039 108.354 L 230.369 150.894 L 190.769 81.739 C 189.407 79.361 187.075 77.747 184.369 77.311 C 181.662 76.876 178.941 77.673 176.901 79.503 L 106.784 142.385 C 104.773 144.19 104.605 147.279 106.407 149.29 C 108.21 151.299 111.298 151.467 113.312 149.664 L 182.742 87.398 L 223.711 158.942 C 224.536 160.385 225.878 161.414 227.487 161.836 C 229.093 162.261 230.766 162.027 232.199 161.177 L 310.252 114.849 C 311.777 113.945 312.859 112.432 313.221 110.699 C 313.585 108.965 313.203 107.145 312.169 105.706 L 298.011 85.962 L 356.598 93.31 L 345.753 152.083 L 331.536 132.046 C 329.624 129.353 326.029 128.576 323.178 130.241 L 297.759 145.064 C 296.866 145.377 295.992 145.769 295.152 146.255 L 284.79 152.238 C 283.833 152.791 282.96 153.437 282.173 154.155 L 272.817 159.611 C 272.142 159.713 271.468 159.863 270.798 160.069 C 270.416 160.184 270.052 160.347 269.711 160.551 L 216.427 192.436 L 179.862 134.554 C 177.243 130.409 171.891 129.126 167.675 131.636 L 119.987 160.059 C 119.977 160.064 119.967 160.064 119.957 160.069 C 119.577 160.184 119.213 160.347 118.872 160.551 L 65.675 192.385 L 99.587 161.971 C 101.598 160.169 101.766 157.078 99.963 155.069 C 98.161 153.058 95.07 152.89 93.059 154.695 L 35.386 206.416 C 32.804 208.73 32.407 212.582 34.462 215.372 C 35.77 217.152 37.789 218.109 39.849 218.109 C 41.023 218.109 42.209 217.801 43.288 217.157 L 46.188 215.428 C 47.825 217.806 50.066 219.746 52.757 221.042 C 57.444 223.305 62.818 223.29 67.495 221.001 L 89.385 210.296 L 77.997 265.922 C 77.827 266.769 77.366 267.543 76.709 268.106 C 74.652 269.855 74.402 272.941 76.151 274.995 C 77.119 276.133 78.494 276.716 79.876 276.716 C 80.996 276.716 82.122 276.334 83.041 275.553 C 85.36 273.582 86.969 270.856 87.575 267.887 L 90.396 254.215 C 93.158 258.694 96.921 262.602 101.542 265.598 L 97.316 276.024 C 96.694 277.282 95.292 278.145 92.904 279.537 C 92.598 279.718 92.285 279.899 91.972 280.085 L 64.152 296.022 L 61.596 293.914 L 67.816 288.588 C 69.865 286.831 70.105 283.746 68.348 281.696 C 66.594 279.644 63.508 279.405 61.456 281.162 L 52.782 288.591 C 51.191 289.945 50.287 291.923 50.308 294.013 C 50.323 296.104 51.26 298.064 52.866 299.385 L 59.096 304.528 C 60.479 305.664 62.202 306.247 63.933 306.247 C 65.232 306.247 66.538 305.918 67.712 305.254 L 96.865 288.552 C 96.885 288.54 96.906 288.527 96.926 288.514 C 97.232 288.333 97.535 288.158 97.832 287.985 C 100.867 286.21 104.309 284.204 106.231 280.041 C 106.265 279.97 106.295 279.899 106.323 279.827 L 110.076 270.573 L 120.766 276.716 C 122.93 277.959 124.183 280.37 123.959 282.857 L 122.077 303.538 C 121.932 305.137 122.469 306.733 123.551 307.919 C 124.636 309.103 126.176 309.783 127.78 309.783 L 139.499 309.783 C 142.175 309.783 144.469 307.963 145.075 305.363 L 152.32 274.443 C 153.558 270.606 153.066 266.454 150.958 263.006 C 150.9 262.912 150.839 262.821 150.775 262.729 L 126.861 228.988 L 139.978 193.559 C 139.985 193.536 139.993 193.515 140.001 193.492 C 141.067 190.483 141.63 187.387 141.714 184.304 C 142.435 184.408 143.158 184.467 143.878 184.467 C 146.49 184.467 149.067 183.782 151.389 182.44 L 161.751 176.458 C 168.945 172.303 171.42 163.068 167.265 155.874 L 164.897 151.772 C 163.833 149.929 162.413 148.371 160.745 147.151 L 172.011 140.438 L 208.036 197.461 L 196.711 204.239 C 194.906 205.318 193.995 207.431 194.448 209.486 C 195.571 214.57 198.906 218.784 203.596 221.044 C 208.283 223.308 213.657 223.292 218.334 221.004 L 261.549 199.867 C 263.972 198.681 264.978 195.753 263.792 193.329 C 262.605 190.903 259.677 189.9 257.251 191.086 L 214.039 212.223 C 212.071 213.185 209.813 213.19 207.84 212.238 C 206.91 211.79 206.106 211.159 205.467 210.39 L 217.374 203.264 L 275.605 169.303 C 276.615 169.477 277.55 170.004 278.222 170.849 L 278.428 171.106 C 278.672 171.689 278.95 172.262 279.273 172.822 L 281.641 176.923 C 281.644 176.929 281.646 176.934 281.651 176.939 C 283.138 181.165 283.179 185.816 281.633 190.198 L 268.967 224.413 L 250.257 222.249 L 247.857 221.969 L 247.979 221.358 C 248.508 218.71 246.792 216.133 244.145 215.604 C 241.497 215.079 238.92 216.79 238.391 219.438 L 228.838 265.906 C 228.66 266.767 228.202 267.548 227.532 268.116 L 203.618 288.591 C 202.03 289.948 201.129 291.923 201.146 294.016 C 201.164 296.104 202.099 298.064 203.705 299.385 L 209.922 304.515 C 211.305 305.658 213.031 306.247 214.77 306.247 C 216.068 306.247 217.374 305.918 218.553 305.251 L 247.704 288.55 C 247.724 288.537 247.745 288.527 247.765 288.514 C 248.07 288.333 248.371 288.158 248.669 287.985 C 251.706 286.21 255.148 284.204 257.07 280.039 C 257.103 279.97 257.134 279.899 257.162 279.827 L 260.915 270.573 L 271.605 276.714 C 273.769 277.959 275.022 280.37 274.795 282.857 L 272.916 303.538 C 272.771 305.137 273.308 306.733 274.39 307.917 C 275.472 309.103 277.015 309.783 278.619 309.783 L 290.338 309.783 C 293.009 309.783 295.303 307.965 295.914 305.363 L 303.162 274.443 C 304.397 270.606 303.905 266.454 301.797 263.004 C 301.739 262.912 301.678 262.818 301.614 262.729 L 277.7 228.988 L 290.817 193.559 C 290.824 193.536 290.832 193.515 290.839 193.492 C 291.906 190.483 292.471 187.385 292.553 184.304 C 293.273 184.408 293.996 184.467 294.717 184.467 C 297.329 184.467 299.906 183.782 302.227 182.44 L 312.589 176.458 C 319.784 172.303 322.259 163.068 318.104 155.874 L 315.736 151.772 C 314.858 150.252 313.733 148.933 312.432 147.826 L 325.383 140.275 L 341.493 162.977 C 343.138 165.299 346 166.399 348.777 165.788 C 351.555 165.174 353.686 162.972 354.203 160.171 L 366.734 92.261 C 367.085 90.357 366.632 88.368 365.489 86.805 L 365.489 86.805 Z  M 142.99 271.52 C 142.936 271.675 142.89 271.833 142.855 271.996 L 136.289 300.004 L 132.215 300.004 L 133.694 283.741 C 134.265 277.465 131.103 271.378 125.637 268.238 L 108.115 258.169 C 98.64 252.723 93.586 242.247 95.078 231.59 L 98.808 232.02 L 118.656 234.319 L 142.687 268.221 C 143.257 269.226 143.369 270.42 142.99 271.52 L 142.99 271.52 Z  M 130.797 190.198 L 118.129 224.41 L 98.543 222.147 L 97.018 221.969 L 100.437 204.891 L 110.71 199.865 C 113.133 198.678 114.139 195.751 112.953 193.327 C 111.766 190.901 108.839 189.898 106.412 191.084 L 94.014 197.148 C 93.986 197.161 93.96 197.174 93.935 197.187 L 63.2 212.22 C 61.235 213.183 58.976 213.188 57.003 212.236 C 56.074 211.787 55.272 211.159 54.633 210.395 L 123.643 169.263 C 125.064 169.123 126.469 169.696 127.386 170.846 L 127.589 171.103 C 127.834 171.684 128.111 172.259 128.435 172.819 L 130.802 176.923 C 130.807 176.929 130.81 176.934 130.812 176.939 C 132.302 181.165 132.34 185.816 130.797 190.198 Z  M 156.862 167.99 L 146.5 173.973 C 145.276 174.68 143.85 174.869 142.486 174.5 C 141.312 174.187 140.306 173.494 139.598 172.529 C 138.753 170.421 137.669 168.389 136.332 166.483 C 135.82 164.275 136.778 161.895 138.84 160.706 L 149.202 154.723 C 150.019 154.252 150.923 154.01 151.839 154.01 C 152.3 154.01 152.761 154.071 153.219 154.193 C 154.584 154.56 155.724 155.436 156.432 156.658 L 158.8 160.759 C 160.259 163.287 159.388 166.531 156.862 167.99 Z  M 248.157 276.024 C 247.533 277.284 246.133 278.145 243.742 279.54 C 243.437 279.718 243.126 279.899 242.813 280.085 L 214.994 296.022 L 212.438 293.914 L 233.882 275.553 C 236.186 273.592 237.798 270.871 238.416 267.887 L 241.235 254.218 C 243.997 258.696 247.762 262.602 252.383 265.598 L 248.157 276.024 Z  M 293.831 271.52 C 293.777 271.675 293.732 271.833 293.693 271.996 L 287.128 300.004 L 283.054 300.004 L 284.533 283.741 C 285.104 277.465 281.941 271.378 276.478 268.238 L 258.957 258.169 C 249.481 252.723 244.425 242.247 245.917 231.59 L 250.616 232.132 L 269.494 234.319 L 293.525 268.221 C 294.096 269.226 294.208 270.42 293.831 271.52 L 293.831 271.52 Z  M 302.678 154.01 C 303.139 154.01 303.602 154.071 304.058 154.193 C 305.423 154.56 306.563 155.436 307.271 156.658 L 309.639 160.759 C 311.097 163.287 310.229 166.531 307.701 167.99 L 297.339 173.973 C 296.117 174.68 294.689 174.869 293.324 174.5 C 292.151 174.187 291.145 173.494 290.437 172.529 C 289.592 170.421 288.507 168.389 287.173 166.485 C 286.802 164.884 287.206 163.198 288.238 161.936 L 301.624 154.13 C 301.97 154.058 302.324 154.01 302.678 154.01 L 302.678 154.01 Z " fill="rgb(0,0,0)"/></g><g transform="matrix(1,0,0,1,19.5,428)"><text transform="matrix(1,0,0,1,0,41.79)" style="font-family:'Sintony';font-weight:700;font-size:42px;font-style:normal;fill:#000000;stroke:none;">Consumer </text><text transform="matrix(1,0,0,1,224.028,41.79)" style="font-family:'Sintony';font-weight:700;font-size:42px;font-style:normal;fill:#000000;stroke:none;">Driven</text></g></g></svg>