<?xml version="1.0" standalone="no"?><!-- Generator: Gravit.io --><svg xmlns="http://www.w3.org/2000/svg" xmlns:xlink="http://www.w3.org/1999/xlink" style="isolation:isolate" viewBox="0 0 400 500" width="400" height="500"><defs><clipPath id="_clipPath_TinJhiXBpKRoDKgM4ADLgiPqz8vH4dXK"><rect width="400" height="500"/></clipPath></defs><g clip-path="url(#_clipPath_TinJhiXBpKRoDKgM4ADLgiPqz8vH4dXK)"><path d="M 41.758 0 L 358.242 0 C 381.289 0 400 18.711 400 41.758 L 400 358.242 C 400 381.289 381.289 400 358.242 400 L 41.758 400 C 18.711 400 0 381.289 0 358.242 L 0 41.758 C 0 18.711 18.711 0 41.758 0 Z" style="stroke:none;fill:#3C6382;stroke-miterlimit:10;"/><path d=" M 373.491 2.873 C 368.765 1.019 363.622 0 358.242 0 L 41.758 0 C 18.711 0 0 18.711 0 41.758 L 0 358.242 C 0 365.036 1.626 371.454 4.509 377.127 C 9.235 378.98 14.379 380 19.758 380 L 336.242 380 C 359.289 380 378 361.289 378 338.242 L 378 21.758 C 378 14.964 376.374 8.546 373.491 2.873 Z " fill="rgb(255,255,255)" fill-opacity="0.45"/><g><path d=" M 281.763 173.366 L 220.471 173.366 C 215.74 173.366 211.904 169.528 211.904 164.797 L 211.904 103.497 C 211.904 98.766 215.74 94.931 220.471 94.931 L 281.763 94.931 C 286.494 94.931 290.329 98.766 290.329 103.497 L 290.329 164.797 C 290.329 169.528 286.494 173.366 281.763 173.366 Z " fill="rgb(254,203,170)"/><path d=" M 281.763 94.931 L 265.365 94.931 C 270.098 94.931 273.934 98.766 273.934 103.5 L 273.934 164.797 C 273.934 169.528 270.098 173.366 265.365 173.366 L 281.763 173.366 C 286.494 173.366 290.329 169.528 290.329 164.797 L 290.329 103.5 C 290.329 98.766 286.494 94.931 281.763 94.931 Z " fill="rgb(255,174,133)"/><path d=" M 173.689 186.394 L 114.574 186.394 C 110.01 186.394 106.311 182.695 106.311 178.13 L 106.311 119.01 C 106.311 114.446 110.012 110.747 114.574 110.747 L 173.689 110.747 C 178.254 110.747 181.953 114.446 181.953 119.01 L 181.953 178.13 C 181.953 182.695 178.254 186.394 173.689 186.394 Z " fill="rgb(254,223,197)"/><path d=" M 173.689 110.744 L 155.533 110.744 C 160.097 110.744 163.796 114.446 163.796 119.01 L 163.796 178.13 C 163.796 182.695 160.097 186.394 155.533 186.394 L 173.689 186.394 C 178.254 186.394 181.953 182.695 181.953 178.13 L 181.953 119.01 C 181.953 114.446 178.254 110.744 173.689 110.744 Z " fill="rgb(254,203,170)"/><path d=" M 247.943 305.071 L 167.126 305.071 C 160.888 305.071 155.828 300.014 155.828 293.774 L 155.828 212.947 C 155.828 206.706 160.888 201.649 167.126 201.649 L 247.943 201.649 C 254.183 201.649 259.24 206.706 259.24 212.947 L 259.24 293.774 C 259.24 300.014 254.18 305.071 247.943 305.071 L 247.943 305.071 Z " fill="rgb(255,174,133)"/><path d=" M 247.943 201.652 L 217.572 201.652 C 223.81 201.652 228.87 206.709 228.87 212.949 L 228.87 293.774 C 228.87 300.014 223.81 305.071 217.572 305.071 L 247.943 305.071 C 254.183 305.071 259.24 300.014 259.24 293.774 L 259.24 212.947 C 259.24 206.709 254.183 201.652 247.943 201.652 L 247.943 201.652 Z " fill="rgb(234,158,125)"/><path d=" M 363.299 191.042 L 362.916 144.639 C 362.503 135.567 354.735 128.597 345.674 129.162 L 265.126 134.44 C 265.196 142.829 272.057 149.572 280.449 149.49 L 327.782 149.159 L 329.548 190.588 L 363.299 191.042 Z " fill="rgb(255,132,167)"/><path d=" M 316.672 149.239 C 316.423 143.442 311.633 138.881 305.831 138.922 L 268.895 139.181 C 267.845 139.192 266.82 139.094 265.832 138.901 C 267.793 145.096 273.613 149.557 280.449 149.49 L 316.672 149.239 Z " fill="rgb(239,96,133)"/><path d=" M 362.916 144.639 C 362.577 137.207 357.3 131.188 350.42 129.565 C 350.957 131.059 351.285 132.658 351.362 134.327 L 351.557 158.097 C 351.662 170.519 341.533 180.595 329.114 180.428 L 329.548 190.588 L 363.301 191.042 L 362.916 144.639 Z " fill="rgb(239,96,133)"/><path d=" M 329.548 190.588 L 295.101 226.421 C 291.926 229.645 291.34 234.612 293.682 238.486 L 314.212 288.442 L 326.067 288.442 L 316.138 244.244 C 315.665 243.06 315.835 241.72 316.582 240.688 L 363.301 191.045 L 329.548 190.588 Z " fill="rgb(56,98,124)"/><path d=" M 363.301 191.042 L 329.548 190.588 L 318.327 228.562 C 317.632 231.008 318.173 233.639 319.78 235.611 L 347.686 288.442 L 359.538 288.442 L 344.919 237.387 C 344.447 235.739 344.565 233.976 345.25 232.405 L 363.301 191.042 Z " fill="rgb(79,118,147)"/><path d=" M 361.427 109.191 L 357.782 119.942 C 356.07 124.991 350.589 127.699 345.538 125.987 L 341.284 124.544 C 336.232 122.832 333.527 117.349 335.239 112.3 L 338.881 101.549 C 340.594 96.497 346.077 93.791 351.129 95.504 L 355.382 96.946 C 360.431 98.659 363.14 104.139 361.427 109.191 L 361.427 109.191 Z " fill="rgb(254,223,197)"/><path d=" M 108.988 153.834 C 107.558 153.985 106.118 153.657 104.894 152.902 L 75.306 133.939 C 70.062 130.577 63.149 131.544 59.029 136.219 L 56.786 138.765 C 53.446 142.552 51.585 147.416 51.544 152.468 L 51.223 191.042 L 84.976 190.588 L 85.349 160.788 L 102.296 170.209 C 103.495 170.876 104.876 171.146 106.236 170.979 L 131.003 167.929 C 140.17 166.802 147.057 159.014 147.057 149.775 L 108.988 153.834 Z " fill="rgb(105,217,152)"/><path d=" M 115.033 163.809 C 97.65 164.41 85.423 155.097 80.304 150.325 C 79.365 149.449 77.838 150.109 77.822 151.392 C 77.82 151.493 77.82 151.59 77.817 151.69 C 77.637 166.142 65.973 177.82 51.523 178.015 L 51.331 178.017 L 51.223 191.042 L 84.974 190.588 L 85.349 160.788 L 102.296 170.211 C 103.495 170.879 104.873 171.148 106.236 170.979 L 131.003 167.932 C 140.17 166.802 147.057 159.014 147.057 149.778 C 144.451 152.371 133.018 163.185 115.033 163.809 Z " fill="rgb(61,197,161)"/><path d=" M 84.974 190.588 L 119.42 226.421 C 122.598 229.645 123.184 234.612 120.84 238.486 L 100.309 288.442 L 88.457 288.442 L 98.386 244.244 C 98.856 243.06 98.689 241.72 97.94 240.688 L 51.223 191.042 L 84.974 190.588 Z " fill="rgb(56,98,124)"/><path d=" M 51.223 191.042 L 84.974 190.588 L 51.223 288.442 L 38.668 288.442 L 51.223 191.042 Z " fill="rgb(79,118,147)"/><path d=" M 60.446 110.444 L 59.378 121.744 C 58.878 127.052 62.774 131.763 68.083 132.266 L 72.555 132.687 C 77.863 133.19 82.576 129.291 83.077 123.982 L 84.142 112.679 C 84.645 107.371 80.746 102.66 75.437 102.16 L 70.966 101.736 C 65.657 101.236 60.947 105.132 60.446 110.444 Z " fill="rgb(254,223,197)"/><path d=" M 314.215 293.371 L 326.067 293.371 C 327.563 293.371 328.98 292.691 329.915 291.523 C 330.852 290.352 331.206 288.822 330.877 287.362 L 322.984 252.235 L 343.327 290.745 C 344.18 292.36 345.858 293.371 347.686 293.371 L 359.538 293.371 C 361.083 293.371 362.541 292.644 363.473 291.41 C 364.405 290.175 364.703 288.573 364.277 287.084 L 349.655 236.029 C 349.501 235.482 349.54 234.895 349.765 234.373 L 367.817 193.019 C 367.824 192.998 367.832 192.975 367.84 192.955 C 367.868 192.893 367.889 192.827 367.914 192.762 C 367.945 192.678 367.978 192.595 368.004 192.508 C 368.009 192.488 368.019 192.467 368.025 192.447 C 368.032 192.423 368.037 192.398 368.043 192.372 C 368.053 192.339 368.061 192.303 368.071 192.267 C 368.089 192.195 368.109 192.121 368.125 192.046 C 368.135 192 368.143 191.951 368.153 191.905 C 368.163 191.846 368.168 191.787 368.179 191.728 C 368.184 191.676 368.194 191.628 368.199 191.574 C 368.207 191.499 368.212 191.425 368.217 191.348 C 368.22 191.286 368.225 191.225 368.225 191.163 C 368.225 191.145 368.227 191.13 368.227 191.112 C 368.227 191.104 368.227 191.094 368.227 191.086 C 368.227 191.058 368.233 191.03 368.233 191.001 L 367.847 144.598 C 367.845 144.536 367.845 144.474 367.842 144.413 C 367.58 138.694 365.09 133.439 360.832 129.617 C 360.046 128.913 359.222 128.277 358.362 127.704 C 360.218 126.048 361.633 123.944 362.454 121.523 L 366.097 110.772 C 368.679 103.156 364.582 94.859 356.966 92.277 L 352.712 90.834 C 349.024 89.584 345.065 89.846 341.574 91.568 C 338.078 93.296 335.467 96.276 334.215 99.968 L 330.572 110.716 C 328.842 115.824 330.115 121.233 333.437 125.024 L 264.805 129.519 C 262.197 129.691 260.177 131.865 260.198 134.478 C 260.241 139.854 262.379 144.89 266.215 148.659 C 270.05 152.424 275.091 154.465 280.485 154.419 L 285.4 154.386 L 285.4 164.797 C 285.4 166.802 283.77 168.432 281.766 168.432 L 220.471 168.432 C 218.466 168.432 216.836 166.802 216.836 164.797 L 216.836 103.5 C 216.836 101.492 218.466 99.86 220.471 99.86 L 281.766 99.86 C 283.77 99.86 285.4 101.492 285.4 103.5 L 285.4 113.239 C 285.4 115.96 287.608 118.168 290.329 118.168 C 293.053 118.168 295.26 115.96 295.26 113.239 L 295.26 103.5 C 295.26 96.058 289.207 90 281.766 90 L 220.471 90 C 213.029 90 206.978 96.056 206.978 103.5 L 206.978 164.797 C 206.978 172.239 213.029 178.292 220.471 178.292 L 281.766 178.292 C 289.207 178.292 295.26 172.239 295.26 164.797 L 295.26 154.316 L 323.02 154.121 L 324.532 188.696 L 291.592 222.958 C 286.925 227.694 285.988 234.925 289.253 240.681 L 309.659 290.316 C 310.416 292.164 312.218 293.371 314.215 293.371 L 314.215 293.371 Z  M 340.732 230.433 C 339.59 233.049 339.395 236.001 340.18 238.743 L 353 283.514 L 350.656 283.514 L 324.676 234.325 C 324.663 234.299 324.65 234.273 324.634 234.25 L 324.139 233.308 C 323.988 233.021 323.805 232.749 323.6 232.494 C 323.012 231.773 322.814 230.81 323.056 229.958 L 333.216 195.571 L 355.813 195.876 L 340.732 230.433 Z  M 339.908 113.883 L 343.551 103.133 C 343.956 101.937 344.803 100.969 345.935 100.412 C 346.598 100.086 347.309 99.919 348.025 99.919 C 348.536 99.919 349.049 100.004 349.545 100.173 L 353.798 101.613 C 356.268 102.45 357.595 105.14 356.758 107.607 L 353.115 118.358 C 352.71 119.554 351.863 120.522 350.731 121.081 C 349.599 121.638 348.315 121.726 347.121 121.317 L 342.868 119.877 C 340.398 119.041 339.071 116.35 339.908 113.883 L 339.908 113.883 Z  M 290.368 144.492 C 290.355 144.492 290.342 144.49 290.329 144.49 C 290.311 144.49 290.293 144.492 290.278 144.492 L 280.4 144.562 C 277.635 144.585 275.076 143.545 273.122 141.625 C 272.322 140.842 271.669 139.949 271.174 138.981 L 345.982 134.081 C 349.031 133.891 351.968 134.912 354.245 136.953 C 356.501 138.978 357.826 141.753 357.988 144.777 L 358.329 186.047 L 334.268 185.721 L 332.882 154.052 L 336.746 154.026 C 339.467 154.006 341.659 151.783 341.638 149.062 C 341.62 146.351 339.418 144.166 336.71 144.166 C 336.699 144.166 336.687 144.166 336.676 144.166 L 290.368 144.492 Z  M 297.902 235.939 C 296.723 233.991 297.016 231.498 298.654 229.835 L 319.092 208.578 L 313.589 227.209 C 312.749 230.148 313.014 233.252 314.251 235.97 L 312.993 237.31 C 312.847 237.464 312.711 237.626 312.588 237.798 C 310.934 240.08 310.503 242.973 311.396 245.625 L 319.909 283.514 L 317.519 283.514 L 298.241 236.617 C 298.146 236.381 298.033 236.155 297.902 235.939 L 297.902 235.939 Z " fill="rgb(0,0,0)"/><path d=" M 363.301 300.143 L 343.664 300.143 C 340.94 300.143 338.732 302.348 338.732 305.071 C 338.732 307.795 340.94 310 343.664 310 L 363.301 310 C 366.022 310 368.23 307.795 368.23 305.071 C 368.23 302.348 366.022 300.143 363.301 300.143 Z " fill="rgb(0,0,0)"/><path d=" M 327.848 300.143 L 308.211 300.143 C 305.487 300.143 303.282 302.348 303.282 305.071 C 303.282 307.795 305.487 310 308.211 310 L 327.848 310 C 330.572 310 332.777 307.795 332.777 305.071 C 332.777 302.348 330.572 300.143 327.848 300.143 Z " fill="rgb(0,0,0)"/><path d=" M 89.931 188.635 L 90.193 169.12 L 99.898 174.519 C 100.381 174.786 100.876 175.011 101.382 175.204 L 101.382 178.13 C 101.382 185.403 107.299 191.32 114.571 191.32 L 173.689 191.32 C 180.962 191.32 186.879 185.403 186.879 178.13 L 186.879 119.007 C 186.879 111.732 180.962 105.815 173.689 105.815 L 114.571 105.815 C 107.299 105.815 101.382 111.732 101.382 119.007 L 101.382 144.798 L 83.693 133.459 C 86.142 131.054 87.656 127.902 87.985 124.444 L 89.05 113.142 C 89.807 105.135 83.908 98.006 75.902 97.252 L 71.43 96.828 C 67.559 96.461 63.763 97.629 60.762 100.111 C 57.758 102.596 55.905 106.1 55.538 109.979 L 54.47 121.279 C 54.126 124.937 55.171 128.408 57.171 131.175 C 56.526 131.722 55.908 132.307 55.333 132.959 L 53.086 135.505 C 48.964 140.182 46.666 146.192 46.612 152.427 L 46.297 190.709 L 43.522 212.215 C 43.175 214.913 45.08 217.385 47.78 217.732 C 50.481 218.083 52.953 216.173 53.3 213.475 L 55.564 195.917 L 78.027 195.614 L 71.166 215.503 C 71.145 215.568 71.122 215.629 71.102 215.691 L 47.709 283.514 L 44.271 283.514 L 50.573 234.622 C 50.922 231.922 49.015 229.45 46.317 229.103 C 43.624 228.757 41.145 230.662 40.798 233.36 L 33.777 287.811 C 33.598 289.218 34.029 290.632 34.966 291.697 C 35.9 292.763 37.251 293.371 38.668 293.371 L 51.223 293.371 C 53.325 293.371 55.197 292.039 55.882 290.049 L 77.807 226.488 L 93.56 243.225 L 83.649 287.362 C 83.323 288.822 83.675 290.355 84.612 291.523 C 85.546 292.691 86.963 293.371 88.46 293.371 L 100.312 293.371 C 102.309 293.371 104.111 292.164 104.871 290.316 L 125.266 240.681 C 128.528 234.931 127.601 227.715 122.953 222.984 L 89.931 188.635 Z  M 114.571 115.675 L 173.689 115.675 C 175.527 115.675 177.021 117.169 177.021 119.007 L 177.021 178.13 C 177.021 179.966 175.527 181.46 173.689 181.46 L 114.571 181.46 C 112.736 181.46 111.242 179.966 111.242 178.13 L 111.242 175.33 L 131.603 172.822 C 143.224 171.392 151.985 161.486 151.985 149.778 C 151.985 148.379 151.392 147.047 150.353 146.112 C 149.313 145.178 147.927 144.729 146.533 144.875 L 111.242 148.636 L 111.242 119.007 C 111.242 117.169 112.736 115.675 114.571 115.675 Z  M 64.286 122.208 L 65.354 110.906 C 65.472 109.648 66.073 108.513 67.046 107.707 C 67.901 107.001 68.953 106.624 70.049 106.624 C 70.201 106.624 70.352 106.629 70.504 106.644 L 74.973 107.065 C 77.568 107.312 79.48 109.622 79.237 112.217 L 78.169 123.517 C 78.051 124.775 77.45 125.91 76.477 126.716 C 75.679 127.376 74.708 127.743 73.694 127.789 C 71.582 127.127 69.397 126.888 67.244 127.039 C 65.346 126.282 64.084 124.344 64.286 122.208 Z  M 56.472 152.509 C 56.503 148.646 57.928 144.921 60.482 142.025 L 62.726 139.479 C 63.832 138.226 65.249 137.415 66.763 137.063 C 67.046 137.107 67.333 137.146 67.621 137.174 L 71.664 137.554 C 71.998 137.708 72.326 137.885 72.644 138.09 L 102.234 157.053 C 102.255 157.066 102.278 157.081 102.301 157.094 C 103.038 157.548 103.823 157.91 104.637 158.185 C 104.712 158.21 104.781 158.241 104.855 158.264 C 106.349 158.737 107.938 158.901 109.512 158.734 L 140.888 155.392 C 138.994 159.463 135.105 162.459 130.4 163.039 L 105.633 166.086 C 105.304 166.13 104.978 166.063 104.688 165.904 L 87.859 156.544 C 87.798 156.509 87.733 156.473 87.669 156.439 L 76.251 150.091 C 73.874 148.766 70.871 149.624 69.549 152.003 C 68.227 154.383 69.081 157.384 71.461 158.706 L 80.405 163.678 L 80.109 185.724 L 56.193 186.047 L 56.472 152.509 Z  M 116.62 235.939 C 116.489 236.155 116.376 236.381 116.278 236.617 L 97.008 283.514 L 94.618 283.514 L 103.123 245.63 C 104.024 242.983 103.592 240.088 101.934 237.798 C 101.811 237.626 101.675 237.464 101.528 237.31 L 81.436 215.963 L 87.007 199.816 L 115.865 229.835 C 115.881 229.85 115.896 229.866 115.911 229.881 C 117.508 231.498 117.798 233.988 116.62 235.939 L 116.62 235.939 Z " fill="rgb(0,0,0)"/><path d=" M 56.334 300.143 L 36.696 300.143 C 33.975 300.143 31.767 302.348 31.767 305.071 C 31.767 307.795 33.975 310 36.696 310 L 56.334 310 C 59.057 310 61.265 307.795 61.265 305.071 C 61.265 302.348 59.057 300.143 56.334 300.143 Z " fill="rgb(0,0,0)"/><path d=" M 106.311 300.143 L 86.673 300.143 C 83.952 300.143 81.745 302.348 81.745 305.071 C 81.745 307.795 83.952 310 86.673 310 L 106.311 310 C 109.034 310 111.242 307.795 111.242 305.071 C 111.242 302.348 109.034 300.143 106.311 300.143 Z " fill="rgb(0,0,0)"/><path d=" M 273.934 300.143 L 262.865 300.143 C 263.704 298.187 264.169 296.033 264.169 293.774 L 264.169 212.947 C 264.169 204.001 256.891 196.721 247.943 196.721 L 202.093 196.721 C 199.37 196.721 197.165 198.928 197.165 201.652 C 197.165 204.373 199.37 206.581 202.093 206.581 L 247.943 206.581 C 251.454 206.581 254.311 209.438 254.311 212.947 L 254.311 293.774 C 254.311 297.286 251.454 300.143 247.943 300.143 L 167.126 300.143 C 163.614 300.143 160.757 297.286 160.757 293.774 L 160.757 212.947 C 160.757 209.438 163.614 206.581 167.126 206.581 L 177.976 206.581 C 180.7 206.581 182.908 204.373 182.908 201.652 C 182.908 198.928 180.7 196.721 177.976 196.721 L 167.126 196.721 C 158.18 196.721 150.9 204.001 150.9 212.947 L 150.9 293.774 C 150.9 296.033 151.364 298.187 152.204 300.143 L 139.243 300.143 C 136.519 300.143 134.314 302.348 134.314 305.071 C 134.314 307.795 136.519 310 139.243 310 L 273.934 310 C 276.655 310 278.862 307.795 278.862 305.071 C 278.862 302.348 276.655 300.143 273.934 300.143 L 273.934 300.143 Z " fill="rgb(0,0,0)"/></g><g transform="matrix(1,0,0,1,92.5,428)"><text transform="matrix(1,0,0,1,0,41.79)" style="font-family:'Sintony';font-weight:700;font-size:42px;font-style:normal;fill:#000000;stroke:none;">Consumer</text></g></g></svg>