<?xml version="1.0" standalone="no"?><!-- Generator: Gravit.io --><svg xmlns="http://www.w3.org/2000/svg" xmlns:xlink="http://www.w3.org/1999/xlink" style="isolation:isolate" viewBox="0 0 400 500" width="400" height="500"><defs><clipPath id="_clipPath_00z2laZfttXee8vwGMRcGOL3wK7ykgA9"><rect width="400" height="500"/></clipPath></defs><g clip-path="url(#_clipPath_00z2laZfttXee8vwGMRcGOL3wK7ykgA9)"><path d="M 41.758 0 L 358.242 0 C 381.289 0 400 18.711 400 41.758 L 400 358.242 C 400 381.289 381.289 400 358.242 400 L 41.758 400 C 18.711 400 0 381.289 0 358.242 L 0 41.758 C 0 18.711 18.711 0 41.758 0 Z" style="stroke:none;fill:#6A89CC;stroke-miterlimit:10;"/><path d=" M 373.491 2.873 C 368.765 1.019 363.622 0 358.242 0 L 41.758 0 C 18.711 0 0 18.711 0 41.758 L 0 358.242 C 0 365.036 1.626 371.454 4.509 377.127 C 9.235 378.98 14.379 380 19.758 380 L 336.242 380 C 359.289 380 378 361.289 378 338.242 L 378 21.758 C 378 14.964 376.374 8.546 373.491 2.873 Z " fill="rgb(255,255,255)" fill-opacity="0.45"/><g><path d=" M 322.973 325.178 L 113.633 325.178 C 106.674 325.178 101.031 319.538 101.031 312.578 L 101.031 59.078 C 101.031 52.119 106.674 46.476 113.633 46.476 L 322.973 46.476 C 329.932 46.476 335.576 52.119 335.576 59.078 L 335.576 312.578 C 335.576 319.538 329.932 325.178 322.973 325.178 L 322.973 325.178 Z " fill="rgb(185,172,172)"/><path d=" M 335.576 59.078 L 335.576 312.576 C 335.576 319.538 329.935 325.178 322.971 325.178 L 299.478 325.178 C 306.442 325.178 312.081 319.538 312.081 312.576 L 312.081 59.078 C 312.081 52.116 306.442 46.476 299.478 46.476 L 322.971 46.476 C 329.935 46.476 335.576 52.116 335.576 59.078 L 335.576 59.078 Z " fill="rgb(158,151,151)"/><path d=" M 224.562 76.531 L 77.219 76.531 C 70.26 76.531 64.617 82.175 64.617 89.134 L 64.617 341.139 C 64.617 348.099 70.26 353.739 77.219 353.739 L 287.472 353.739 C 294.431 353.739 300.072 348.099 300.072 341.139 L 300.072 147.333 C 300.072 143.822 298.606 140.468 296.03 138.082 L 233.12 79.883 C 230.79 77.729 227.735 76.531 224.562 76.531 L 224.562 76.531 Z " fill="rgb(239,226,221)"/><path d=" M 300.075 147.333 L 300.075 341.142 C 300.075 348.099 294.431 353.742 287.475 353.742 L 269.739 353.742 C 276.7 353.742 282.341 348.099 282.341 341.142 L 282.341 125.42 L 296.03 138.082 C 298.609 140.47 300.075 143.822 300.075 147.333 L 300.075 147.333 Z " fill="rgb(225,211,206)"/><path d=" M 233.339 80.248 L 233.339 126.95 C 233.339 133.098 238.323 138.082 244.474 138.082 L 295.69 138.082 L 233.339 80.248 Z " fill="rgb(205,191,186)"/><path d=" M 322.973 41.859 L 165.414 41.859 C 162.864 41.859 160.797 43.926 160.797 46.476 C 160.797 49.026 162.864 51.093 165.414 51.093 L 322.973 51.093 C 327.375 51.093 330.956 54.674 330.956 59.078 L 330.956 312.578 C 330.956 316.98 327.375 320.561 322.973 320.561 L 304.692 320.561 L 304.692 204.419 C 304.692 201.869 302.625 199.802 300.075 199.802 C 297.525 199.802 295.458 201.869 295.458 204.419 L 295.458 341.139 C 295.458 345.544 291.877 349.125 287.472 349.125 L 77.219 349.125 C 72.815 349.125 69.234 345.541 69.234 341.139 L 69.234 89.134 C 69.234 84.732 72.817 81.151 77.219 81.151 L 224.562 81.151 C 226.045 81.151 227.479 81.561 228.723 82.324 L 228.723 126.953 C 228.723 135.636 235.788 142.702 244.471 142.702 L 293.973 142.702 C 294.926 144.044 295.455 145.664 295.455 147.333 L 295.455 183.334 C 295.455 185.884 297.522 187.951 300.072 187.951 C 302.625 187.951 304.692 185.884 304.692 183.334 L 304.692 147.333 C 304.692 142.549 302.675 137.942 299.164 134.694 L 236.254 76.495 C 233.062 73.542 228.909 71.915 224.562 71.915 L 105.648 71.915 L 105.648 59.078 C 105.648 54.676 109.231 51.093 113.633 51.093 L 145.099 51.093 C 147.649 51.093 149.716 49.026 149.716 46.476 C 149.716 43.926 147.649 41.859 145.099 41.859 L 113.633 41.859 C 104.138 41.859 96.414 49.583 96.414 59.078 L 96.414 71.915 L 77.219 71.915 C 67.725 71.915 60 79.639 60 89.134 L 60 341.139 C 60 350.634 67.725 358.359 77.219 358.359 L 287.472 358.359 C 296.967 358.359 304.692 350.634 304.692 341.139 L 304.692 329.798 L 322.973 329.798 C 332.468 329.798 340.193 322.073 340.193 312.578 L 340.193 59.078 C 340.193 49.583 332.468 41.859 322.973 41.859 L 322.973 41.859 Z  M 237.959 90.829 L 283.923 133.465 L 244.474 133.465 C 240.881 133.465 237.959 130.544 237.959 126.953 L 237.959 90.829 Z " fill="rgb(0,0,0)"/><path d=" M 236.3 160.331 L 128.394 160.331 C 125.844 160.331 123.777 162.398 123.777 164.948 C 123.777 167.498 125.844 169.565 128.394 169.565 L 236.3 169.565 C 238.85 169.565 240.917 167.498 240.917 164.948 C 240.917 162.398 238.85 160.331 236.3 160.331 Z " fill="rgb(0,0,0)"/><path d=" M 96.834 194.886 C 96.834 197.436 98.901 199.503 101.451 199.503 L 149.851 199.503 C 152.401 199.503 154.468 197.436 154.468 194.886 C 154.468 192.336 152.401 190.269 149.851 190.269 L 101.451 190.269 C 98.901 190.269 96.834 192.336 96.834 194.886 Z " fill="rgb(0,0,0)"/><path d=" M 189.682 199.503 C 192.232 199.503 194.301 197.436 194.301 194.886 C 194.301 192.336 192.232 190.269 189.682 190.269 L 167.242 190.269 C 164.692 190.269 162.625 192.336 162.625 194.886 C 162.625 197.436 164.692 199.503 167.242 199.503 L 189.682 199.503 Z " fill="rgb(0,0,0)"/><path d=" M 263.241 190.269 L 205.797 190.269 C 203.245 190.269 201.18 192.336 201.18 194.886 C 201.18 197.436 203.247 199.503 205.797 199.503 L 263.241 199.503 C 265.793 199.503 267.86 197.436 267.86 194.886 C 267.86 192.336 265.793 190.269 263.241 190.269 Z " fill="rgb(0,0,0)"/><path d=" M 101.451 222.691 L 133.182 222.691 C 135.732 222.691 137.799 220.624 137.799 218.074 C 137.799 215.524 135.732 213.457 133.182 213.457 L 101.451 213.457 C 98.901 213.457 96.834 215.524 96.834 218.074 C 96.834 220.624 98.901 222.691 101.451 222.691 Z " fill="rgb(0,0,0)"/><path d=" M 219.728 218.074 C 219.728 215.524 217.661 213.457 215.111 213.457 L 149.851 213.457 C 147.301 213.457 145.234 215.524 145.234 218.074 C 145.234 220.624 147.301 222.691 149.851 222.691 L 215.111 222.691 C 217.661 222.691 219.728 220.624 219.728 218.074 Z " fill="rgb(0,0,0)"/><path d=" M 263.241 213.457 L 234.518 213.457 C 231.968 213.457 229.901 215.524 229.901 218.074 C 229.901 220.624 231.968 222.691 234.518 222.691 L 263.241 222.691 C 265.793 222.691 267.86 220.624 267.86 218.074 C 267.86 215.524 265.793 213.457 263.241 213.457 Z " fill="rgb(0,0,0)"/><path d=" M 145.355 241.265 C 145.355 238.715 143.288 236.648 140.738 236.648 L 101.451 236.648 C 98.901 236.648 96.834 238.715 96.834 241.265 C 96.834 243.815 98.901 245.882 101.451 245.882 L 140.738 245.882 C 143.288 245.882 145.355 243.815 145.355 241.265 Z " fill="rgb(0,0,0)"/><path d=" M 155.323 236.646 C 152.773 236.646 150.706 238.713 150.706 241.263 C 150.706 243.812 152.773 245.882 155.323 245.882 L 202.448 245.882 C 204.998 245.882 207.065 243.812 207.065 241.263 C 207.065 238.713 204.998 236.646 202.448 236.646 L 155.323 236.646 Z " fill="rgb(0,0,0)"/><path d=" M 263.241 236.646 L 218.716 236.646 C 216.166 236.646 214.099 238.713 214.099 241.263 C 214.099 243.812 216.166 245.882 218.716 245.882 L 263.241 245.882 C 265.793 245.882 267.86 243.812 267.86 241.263 C 267.86 238.713 265.793 236.646 263.241 236.646 Z " fill="rgb(0,0,0)"/><path d=" M 101.451 259.836 C 98.901 259.836 96.834 261.903 96.834 264.453 C 96.834 267.003 98.901 269.07 101.451 269.07 L 125.651 269.07 C 128.201 269.07 130.268 267.003 130.268 264.453 C 130.268 261.903 128.201 259.836 125.651 259.836 L 101.451 259.836 Z " fill="rgb(0,0,0)"/><path d=" M 142.981 269.07 L 220.959 269.07 C 223.512 269.07 225.576 267.003 225.576 264.453 C 225.576 261.903 223.509 259.836 220.959 259.836 L 142.981 259.836 C 140.431 259.836 138.364 261.903 138.364 264.453 C 138.364 267.003 140.431 269.07 142.981 269.07 Z " fill="rgb(0,0,0)"/><path d=" M 263.241 259.836 L 240.98 259.836 C 238.427 259.836 236.363 261.903 236.363 264.453 C 236.363 267.003 238.43 269.07 240.98 269.07 L 263.241 269.07 C 265.793 269.07 267.86 267.003 267.86 264.453 C 267.86 261.903 265.793 259.836 263.241 259.836 Z " fill="rgb(0,0,0)"/><path d=" M 218.726 323.234 C 218.233 323.234 217.731 323.155 217.238 322.988 C 214.811 322.165 213.515 319.533 214.336 317.108 C 215.611 313.344 217.2 308.659 220.488 304.948 C 224.673 300.227 230.963 298.31 236.138 300.181 C 240.506 301.758 242.832 305.315 244.701 308.172 C 246.27 310.572 247.321 312.059 248.675 312.467 C 251.942 313.455 254.864 312.033 259.324 301.91 C 260.358 299.568 263.091 298.503 265.438 299.537 C 267.78 300.57 268.843 303.306 267.812 305.648 C 265.441 311.031 259.141 325.318 245.993 321.344 C 241.31 319.926 238.886 316.222 236.94 313.245 C 235.6 311.195 234.443 309.427 232.989 308.901 C 231.429 308.336 229.036 309.28 227.428 311.098 C 225.381 313.407 224.231 316.802 223.118 320.083 C 222.461 322.017 220.657 323.234 218.726 323.234 L 218.726 323.234 Z " fill="rgb(0,0,0)"/></g><g transform="matrix(1,0,0,1,112,428)"><text transform="matrix(1,0,0,1,0,41.79)" style="font-family:'Sintony';font-weight:700;font-size:42px;font-style:normal;fill:#000000;stroke:none;">Contract</text></g></g></svg>