<?xml version="1.0" standalone="no"?><!-- Generator: Gravit.io --><svg xmlns="http://www.w3.org/2000/svg" xmlns:xlink="http://www.w3.org/1999/xlink" style="isolation:isolate" viewBox="0 0 560 315" width="560" height="315"><defs><clipPath id="_clipPath_htxZHMSBCmF299iOG58nGoncx2KaOuT2"><rect width="560" height="315"/></clipPath></defs><g clip-path="url(#_clipPath_htxZHMSBCmF299iOG58nGoncx2KaOuT2)"><g><path d="M 223.682 229 L 318.818 229 C 322.92 229 326.25 232.33 326.25 236.432 L 326.25 270.568 C 326.25 274.67 322.92 278 318.818 278 L 223.682 278 C 219.58 278 216.25 274.67 216.25 270.568 L 216.25 236.432 C 216.25 232.33 219.58 229 223.682 229 Z" style="stroke:none;fill:#F368E0;stroke-miterlimit:10;opacity:0.15;"/><path d="M 223.682 229 L 318.818 229 C 322.92 229 326.25 232.33 326.25 236.432 L 326.25 270.568 C 326.25 274.67 322.92 278 318.818 278 L 223.682 278 C 219.58 278 216.25 274.67 216.25 270.568 L 216.25 236.432 C 216.25 232.33 219.58 229 223.682 229 Z" style="fill:none;stroke:#F368E0;stroke-width:3;stroke-linecap:square;stroke-miterlimit:2;"/><g transform="matrix(1,0,0,1,247.25,236.719)"><text transform="matrix(1,0,0,1,0.062,15.408)" style="font-family:'Arial Black';font-weight:400;font-size:14px;font-style:normal;fill:#f368e0;stroke:none;">Portal</text><text transform="matrix(1,0,0,1,8.217,29.228)" style="font-family:'Arial Black';font-weight:400;font-size:14px;font-style:normal;fill:#f368e0;stroke:none;">App</text></g></g><g><path d="M 223.682 133 L 318.818 133 C 322.92 133 326.25 136.33 326.25 140.432 L 326.25 174.568 C 326.25 178.67 322.92 182 318.818 182 L 223.682 182 C 219.58 182 216.25 178.67 216.25 174.568 L 216.25 140.432 C 216.25 136.33 219.58 133 223.682 133 Z" style="stroke:none;fill:#00D2D3;stroke-linecap:square;stroke-miterlimit:2;opacity:0.15;"/><path d="M 223.682 133 L 318.818 133 C 322.92 133 326.25 136.33 326.25 140.432 L 326.25 174.568 C 326.25 178.67 322.92 182 318.818 182 L 223.682 182 C 219.58 182 216.25 178.67 216.25 174.568 L 216.25 140.432 C 216.25 136.33 219.58 133 223.682 133 Z" style="fill:none;stroke:#00D2D3;stroke-width:3;stroke-linecap:square;stroke-miterlimit:2;"/><g transform="matrix(1,0,0,1,241.25,140.719)"><text transform="matrix(1,0,0,1,7.617,15.408)" style="font-family:'Arial Black';font-weight:400;font-size:14px;font-style:normal;fill:#00d2d3;stroke:none;">Order</text><text transform="matrix(1,0,0,1,0.224,29.228)" style="font-family:'Arial Black';font-weight:400;font-size:14px;font-style:normal;fill:#00d2d3;stroke:none;">Service</text></g></g><g><path d="M 62.182 37 L 157.318 37 C 161.42 37 164.75 40.33 164.75 44.432 L 164.75 78.568 C 164.75 82.67 161.42 86 157.318 86 L 62.182 86 C 58.08 86 54.75 82.67 54.75 78.568 L 54.75 44.432 C 54.75 40.33 58.08 37 62.182 37 Z" style="stroke:none;fill:#00D2D3;stroke-linecap:square;stroke-miterlimit:2;opacity:0.15;"/><path d="M 62.182 37 L 157.318 37 C 161.42 37 164.75 40.33 164.75 44.432 L 164.75 78.568 C 164.75 82.67 161.42 86 157.318 86 L 62.182 86 C 58.08 86 54.75 82.67 54.75 78.568 L 54.75 44.432 C 54.75 40.33 58.08 37 62.182 37 Z" style="fill:none;stroke:#00D2D3;stroke-width:3;stroke-linecap:square;stroke-miterlimit:2;"/><g transform="matrix(1,0,0,1,75.25,44.719)"><text transform="matrix(1,0,0,1,0.055,15.408)" style="font-family:'Arial Black';font-weight:400;font-size:14px;font-style:normal;fill:#00d2d3;stroke:none;">Payment</text><text transform="matrix(1,0,0,1,4.724,29.228)" style="font-family:'Arial Black';font-weight:400;font-size:14px;font-style:normal;fill:#00d2d3;stroke:none;">Service</text></g></g><g><path d="M 385.182 37 L 480.318 37 C 484.42 37 487.75 40.33 487.75 44.432 L 487.75 78.568 C 487.75 82.67 484.42 86 480.318 86 L 385.182 86 C 381.08 86 377.75 82.67 377.75 78.568 L 377.75 44.432 C 377.75 40.33 381.08 37 385.182 37 Z" style="stroke:none;fill:#00D2D3;stroke-linecap:square;stroke-miterlimit:2;opacity:0.15;"/><path d="M 385.182 37 L 480.318 37 C 484.42 37 487.75 40.33 487.75 44.432 L 487.75 78.568 C 487.75 82.67 484.42 86 480.318 86 L 385.182 86 C 381.08 86 377.75 82.67 377.75 78.568 L 377.75 44.432 C 377.75 40.33 381.08 37 385.182 37 Z" style="fill:none;stroke:#00D2D3;stroke-width:3;stroke-linecap:square;stroke-miterlimit:2;"/><g transform="matrix(1,0,0,1,392.75,44.719)"><text transform="matrix(1,0,0,1,0.497,15.408)" style="font-family:'Arial Black';font-weight:400;font-size:14px;font-style:normal;fill:#00d2d3;stroke:none;">Consumer</text><text transform="matrix(1,0,0,1,10.224,29.228)" style="font-family:'Arial Black';font-weight:400;font-size:14px;font-style:normal;fill:#00d2d3;stroke:none;">Service</text></g></g><g><g><path d=" M 147.25 94 L 147.25 94 C 147.25 97.311 155.091 100 164.75 100 C 174.409 100 182.25 97.311 182.25 94 L 182.25 94 L 182.25 78 L 147.25 78 L 147.25 94 L 147.25 94 Z " fill="rgb(254,202,87)" vector-effect="non-scaling-stroke" stroke-width="2" stroke="rgb(0,0,0)" stroke-linejoin="bevel" stroke-linecap="butt" stroke-miterlimit="3"/><path d=" M 147.25 78 C 147.25 74.689 155.091 72 164.75 72 C 174.409 72 182.25 74.689 182.25 78 C 182.25 81.311 174.409 84 164.75 84 C 155.091 84 147.25 81.311 147.25 78 Z " fill="rgb(254,202,87)" vector-effect="non-scaling-stroke" stroke-width="2" stroke="rgb(0,0,0)" stroke-linejoin="miter" stroke-linecap="square" stroke-miterlimit="3"/></g></g><g><g><path d=" M 308.75 190 L 308.75 190 C 308.75 193.311 316.591 196 326.25 196 C 335.909 196 343.75 193.311 343.75 190 L 343.75 190 L 343.75 174 L 308.75 174 L 308.75 190 L 308.75 190 Z " fill="rgb(254,202,87)" vector-effect="non-scaling-stroke" stroke-width="2" stroke="rgb(0,0,0)" stroke-linejoin="bevel" stroke-linecap="butt" stroke-miterlimit="3"/><path d=" M 308.75 174 C 308.75 170.689 316.591 168 326.25 168 C 335.909 168 343.75 170.689 343.75 174 C 343.75 177.311 335.909 180 326.25 180 C 316.591 180 308.75 177.311 308.75 174 Z " fill="rgb(254,202,87)" vector-effect="non-scaling-stroke" stroke-width="2" stroke="rgb(0,0,0)" stroke-linejoin="miter" stroke-linecap="square" stroke-miterlimit="3"/></g></g><g><g><path d=" M 470.25 94 L 470.25 94 C 470.25 97.311 478.091 100 487.75 100 C 497.409 100 505.25 97.311 505.25 94 L 505.25 94 L 505.25 78 L 470.25 78 L 470.25 94 L 470.25 94 Z " fill="rgb(254,202,87)" vector-effect="non-scaling-stroke" stroke-width="2" stroke="rgb(0,0,0)" stroke-linejoin="bevel" stroke-linecap="butt" stroke-miterlimit="3"/><path d=" M 470.25 78 C 470.25 74.689 478.091 72 487.75 72 C 497.409 72 505.25 74.689 505.25 78 C 505.25 81.311 497.409 84 487.75 84 C 478.091 84 470.25 81.311 470.25 78 Z " fill="rgb(254,202,87)" vector-effect="non-scaling-stroke" stroke-width="2" stroke="rgb(0,0,0)" stroke-linejoin="miter" stroke-linecap="square" stroke-miterlimit="3"/></g></g><path d=" M 259.75 123 L 259.75 69 L 183.75 69" fill="none" vector-effect="non-scaling-stroke" stroke-width="2" stroke="rgb(87,101,116)" stroke-linejoin="round" stroke-linecap="round" stroke-miterlimit="3"/><line x1="271.25" y1="220" x2="271.25" y2="193" vector-effect="non-scaling-stroke" stroke-width="2" stroke="rgb(87,101,116)" stroke-linejoin="round" stroke-linecap="round" stroke-miterlimit="3"/><path d=" M 296.25 220 L 296.25 209 L 433.75 209 L 433.75 98" fill="none" vector-effect="non-scaling-stroke" stroke-width="2" stroke="rgb(87,101,116)" stroke-linejoin="round" stroke-linecap="round" stroke-miterlimit="3"/><path d=" M 285.75 123 L 285.75 69 L 358.75 69" fill="none" vector-effect="non-scaling-stroke" stroke-width="2" stroke="rgb(87,101,116)" stroke-linejoin="round" stroke-linecap="round" stroke-miterlimit="3"/></g></svg>