<?xml version="1.0" standalone="no"?><!-- Generator: Gravit.io --><svg xmlns="http://www.w3.org/2000/svg" xmlns:xlink="http://www.w3.org/1999/xlink" style="isolation:isolate" viewBox="0 0 800 500" width="800" height="500"><defs><clipPath id="_clipPath_9deoEqZIyGuacMSFQKOCLpNavHcm57sk"><rect width="800" height="500"/></clipPath></defs><g clip-path="url(#_clipPath_9deoEqZIyGuacMSFQKOCLpNavHcm57sk)"><g style="opacity:0.95;"><g transform="matrix(2.532,0,0,2.532,102.567,258)"><text transform="matrix(1,0,0,1,0,19.9)" style="font-family:'Sintony';font-weight:700;font-size:20px;font-style:normal;font-variant-ligatures:none;fill:#60798A;stroke:none;">DevOps</text></g><g transform="matrix(1.793,0,0,1.793,101.952,307.079)"><text transform="matrix(1,0,0,1,0,19.9)" style="font-family:'Sintony';font-weight:700;font-size:20px;font-style:normal;font-variant-ligatures:none;fill:#60798A;stroke:none;">Enthusiast</text></g></g><g style="mix-blend-mode:normal;" opacity="0.8"><g transform="matrix(1.944,0,0,1.944,66.136,346)"><text transform="matrix(1,0,0,1,0,19.9)" style="font-family:'Sintony';font-weight:700;font-size:20px;font-style:normal;font-variant-ligatures:none;fill:#60798A;stroke:none;">Web Developer</text></g></g><g style="mix-blend-mode:normal;" opacity="0.6"><g transform="matrix(5.386,0,0,5.386,173.596,364.641)"><text transform="matrix(1,0,0,1,0,19.9)" style="font-family:'Sintony';font-weight:700;font-size:20px;font-style:normal;font-variant-ligatures:none;fill:#60798A;stroke:none;">PHP</text></g></g><g style="mix-blend-mode:normal;" opacity="0.6"><g transform="matrix(3.143,0,0,3.143,530.242,16.083)"><text transform="matrix(1,0,0,1,0,19.9)" style="font-family:'Sintony';font-weight:700;font-size:20px;font-style:normal;font-variant-ligatures:none;fill:#60798A;stroke:none;">bolivian</text></g></g><g><g transform="matrix(1.563,0,0,1.563,565,296.177)"><text transform="matrix(1,0,0,1,0,19.9)" style="font-family:'Sintony';font-weight:700;font-size:20px;font-style:normal;font-variant-ligatures:none;fill:#60798A;stroke:none;">Sidekick</text></g><g transform="matrix(1.315,0,0,1.315,565,325.536)"><text transform="matrix(1,0,0,1,0,19.9)" style="font-family:'Sintony';font-weight:700;font-size:20px;font-style:normal;font-variant-ligatures:none;fill:#60798A;stroke:none;">Facilitator</text></g></g><g style="mix-blend-mode:normal;" opacity="0.9"><g transform="matrix(1.366,0,0,1.366,83.644,234.961)"><text transform="matrix(1,0,0,1,0,19.9)" style="font-family:'Sintony';font-weight:700;font-size:20px;font-style:normal;font-variant-ligatures:none;fill:#60798A;stroke:none;">JavaScript</text></g></g><g transform="matrix(3.226,0,0,3.226,499.931,426)"><text transform="matrix(1,0,0,1,0,19.9)" style="font-family:'Sintony';font-weight:700;font-size:20px;font-style:normal;font-variant-ligatures:none;fill:#60798A;stroke:none;">Father</text></g><g style="opacity:0.85;"><g transform="matrix(1.644,0,0,1.644,544.303,232.819)"><text transform="matrix(1,0,0,1,0,19.9)" style="font-family:'Sintony';font-weight:700;font-size:20px;font-style:normal;font-variant-ligatures:none;fill:#60798A;stroke:none;">Hobby</text></g><g transform="matrix(1.028,0,0,1.028,544.17,265.918)"><text transform="matrix(1,0,0,1,0,19.9)" style="font-family:'Sintony';font-weight:700;font-size:20px;font-style:normal;font-variant-ligatures:none;fill:#60798A;stroke:none;">Cartoonist</text></g></g><g style="mix-blend-mode:normal;" opacity="0.85"><g transform="matrix(1.275,0,0,1.275,135.821,189.072)"><text transform="matrix(1,0,0,1,0,19.9)" style="font-family:'Sintony';font-weight:700;font-size:20px;font-style:normal;font-variant-ligatures:none;fill:#60798A;stroke:none;">UI/UX Admirer</text></g></g><g style="mix-blend-mode:normal;" opacity="0.85"><g transform="matrix(1.275,0,0,1.275,41.646,388.774)"><text transform="matrix(1,0,0,1,0,19.9)" style="font-family:'Sintony';font-weight:700;font-size:20px;font-style:normal;font-variant-ligatures:none;fill:#60798A;stroke:none;">RatePAYer</text></g></g><g><g transform="matrix(1.275,0,0,1.275,203.111,160.576)"><text transform="matrix(1,0,0,1,0,19.9)" style="font-family:'Sintony';font-weight:700;font-size:20px;font-style:normal;font-variant-ligatures:none;fill:#60798A;stroke:none;">Activist</text></g><g transform="matrix(3.298,0,0,3.298,203.111,90)"><text transform="matrix(1,0,0,1,0,19.9)" style="font-family:'Sintony';font-weight:700;font-size:20px;font-style:normal;font-variant-ligatures:none;fill:#60798A;stroke:none;">QA</text></g></g><g style="opacity:0.9;"><g transform="matrix(1.634,0,0,1.634,586.438,115.066)"><text transform="matrix(1,0,0,1,0,19.9)" style="font-family:'Sintony';font-weight:700;font-size:20px;font-style:normal;font-variant-ligatures:none;fill:#60798A;stroke:none;">Engineer</text></g><g transform="matrix(1.634,0,0,1.634,588.072,84)"><text transform="matrix(1,0,0,1,0,19.9)" style="font-family:'Sintony';font-weight:700;font-size:20px;font-style:normal;font-variant-ligatures:none;fill:#60798A;stroke:none;">Software</text></g></g><g style="opacity:0.9;"><g transform="matrix(1.634,0,0,1.634,452.581,356.641)"><text transform="matrix(1,0,0,1,0,19.9)" style="font-family:'Sintony';font-weight:700;font-size:20px;font-style:normal;font-variant-ligatures:none;fill:#60798A;stroke:none;">Bankathon</text></g><g transform="matrix(2.464,0,0,2.464,451.724,384.676)"><text transform="matrix(1,0,0,1,0,19.9)" style="font-family:'Sintony';font-weight:700;font-size:20px;font-style:normal;font-variant-ligatures:none;fill:#60798A;stroke:none;">Winner</text></g></g><g style="opacity:0.7;"><g transform="matrix(1.28,0,0,1.28,527.24,159.995)"><text transform="matrix(1,0,0,1,0,19.9)" style="font-family:'Sintony';font-weight:700;font-size:20px;font-style:normal;font-variant-ligatures:none;fill:#60798A;stroke:none;">Hacker School</text></g><g transform="matrix(0.967,0,0,0.967,525.96,176.896)"><text transform="matrix(1,0,0,1,0,47.76)" style="font-family:'Sintony';font-weight:700;font-size:48px;font-style:normal;font-variant-ligatures:none;fill:#60798A;stroke:none;">Inspirer</text></g></g><g style="opacity:0.6;"><g transform="matrix(0.905,0,0,0.905,236.472,219)"><text transform="matrix(1,0,0,1,0,19.9)" style="font-family:'Sintony';font-weight:700;font-size:20px;font-style:normal;font-variant-ligatures:none;fill:#60798A;stroke:none;">Football</text></g><g transform="matrix(1.975,0,0,1.975,235.546,229.802)"><text transform="matrix(1,0,0,1,0,19.9)" style="font-family:'Sintony';font-weight:700;font-size:20px;font-style:normal;font-variant-ligatures:none;fill:#60798A;stroke:none;">Fan</text></g></g><g><g><path d=" M 375.721 449.33 Q 391.834 443.983 417.971 440.205 C 419.242 446.095 420.776 449.705 416.776 452.705 C 409.276 459.205 396.721 462.205 377.971 466.705 C 359.221 471.205 350.471 469.455 348.971 466.705 C 347.221 462.455 359.607 454.678 375.721 449.33 Z " fill="rgb(96,62,20)"/><path d=" M 375.246 447.905 C 388.352 443.599 405.645 437.738 419.086 438.535 C 421.501 438.678 419.795 448.584 419.346 449.875 C 417.361 455.581 409.879 458.637 404.774 460.623 C 388.471 466.955 372.221 470.205 355.721 471.955 C 348.338 471.458 345.221 467.205 347.221 462.58 C 351.221 455.705 366.292 450.873 375.246 447.905 L 375.246 447.905 L 375.246 447.905 Z  M 350.721 466.005 C 349.15 462.863 362.263 456.296 363.323 455.788 C 376.827 449.306 402.189 440.323 416.776 441.895 C 421.075 442.52 418.221 450.705 413.471 454.025 C 410.695 455.676 407.971 457.455 402.471 459.455 C 396.971 461.455 373.971 467.955 360.027 468.955 C 355.971 468.955 351.861 468.612 350.721 466.005 Z " fill-rule="evenodd" fill="rgb(0,0,0)"/><path d=" M 429.471 442.83 Q 451.405 449.048 463.721 455.83 C 476.036 462.613 486.221 467.08 489.471 472.58 C 492.721 478.08 491.447 481.877 483.471 483.33 C 475.494 484.783 452.612 475.944 423.721 449.33 L 429.471 442.83 Z " fill="rgb(96,62,20)"/><path d=" M 429.876 441.385 C 439.44 444.099 446.52 446.497 455.596 450.58 C 461.326 453.158 476.846 459.33 483.356 464.08 C 497.846 474.83 494.939 487.05 478.331 484.709 C 463.359 482.599 448.344 471.728 436.927 462.58 C 436.927 462.58 422.596 448.335 422.596 448.335 L 422.596 448.335 L 428.346 441.835 C 428.739 441.39 429.303 441.219 429.876 441.385 L 429.876 441.385 Z  M 429.966 444.535 C 439.081 447.148 448.091 450.129 456.746 454.025 C 465.276 457.866 473.836 462.534 481.746 467.535 C 486.596 470.83 490.346 476.08 487.346 478.58 C 480.244 483.953 469.954 479.472 463.411 476.205 C 449.618 469.319 437.138 459.574 425.816 449.225 L 425.816 449.225 L 429.966 444.535 Z " fill-rule="evenodd" fill="rgb(0,0,0)"/></g><g><path d=" M 377.721 332.216 C 404.205 337.13 431.215 334.928 458.721 325.58 C 436.053 365.022 430.355 405.488 441.596 446.949 C 432.315 451.32 418.408 449.212 399.846 440.595 C 402.53 395.062 395.175 358.955 377.721 332.216 Z " fill="rgb(87,101,116)"/><path d=" M 397.516 443.355 C 399.223 415.184 399.117 384.935 389.476 357.985 C 385.503 346.881 380.582 341.12 373.446 329.455 C 373.149 328.971 393.079 332.212 393.204 332.216 C 414.105 332.802 421.665 332.617 442.596 328.321 C 445.268 327.773 458.596 323.955 461.832 321.955 C 461.832 321.955 457.761 330.402 457.761 330.402 C 454.497 337.183 452.34 341.848 449.569 348.847 C 441.592 369 436.701 390.278 437.318 412.044 C 437.332 412.52 437.349 412.994 437.37 413.465 C 437.801 423.364 439.76 432.174 442.596 441.705 C 442.596 441.705 444.356 448.355 444.356 448.355 C 427.134 451.048 425.319 453.468 412.901 446.949 C 408.252 444.508 402.695 443.619 397.516 443.355 L 397.516 443.355 L 397.516 443.355 Z  M 400.676 440.595 C 402.093 413.576 401.528 385.565 393.204 359.571 C 390.192 350.166 385.171 343.087 380.426 334.655 C 380.426 334.655 388.096 335.705 388.096 335.705 C 402.252 336.851 410.807 337.343 425.096 335.705 C 428.069 335.364 437.001 333.961 439.956 333.484 C 447.096 331.205 451.096 330.205 455.646 327.925 C 455.646 327.925 453.096 332.216 453.096 332.216 C 448.358 341.926 442.596 357.955 438.846 370.955 C 435.096 383.955 432.783 412.415 434.346 423.455 C 435.909 434.496 439.956 444.745 439.956 444.745 C 424.611 452.458 415.464 442.221 400.676 440.595 L 400.676 440.595 L 400.676 440.595 Z " fill-rule="evenodd" fill="rgb(0,0,0)"/><path d=" M 419.346 357.985 Q 418.846 352.955 418.596 348.847 Q 420.846 353.205 421.596 360.455 C 422.346 367.705 423.256 379.145 423.846 391.055 C 424.326 400.395 424.576 409.745 424.606 419.095 C 424.616 424.485 425.136 444.515 424.606 449.125 L 419.346 446.949 C 419.866 442.399 421.616 424.435 421.606 419.095 C 421.576 409.795 421.326 400.495 420.856 391.205 C 420.266 379.315 419.846 363.015 419.346 357.985 Z " fill="rgb(0,0,0)"/></g><g><path d=" M 336.726 212.695 C 402.702 192.036 460.588 184.732 510.356 190.755 C 496.429 208.643 482.686 224.365 469.096 237.893 Q 462.096 266.83 457.854 325.08 C 433.846 335.497 406.52 337.423 375.846 330.83 Q 381.614 254.88 378.096 251.58 C 363.685 241.306 349.905 228.354 336.726 212.695 Z " fill="rgb(235,235,235)"/><path d=" M 385.846 222.205 L 400.981 241.205 L 391.596 309.58 L 414.03 325.83 L 434.096 308.58 L 409.346 241.205 L 420.846 222.205 L 385.846 222.205 Z " fill-rule="evenodd" fill="rgb(83,92,104)"/><path d=" M 335.346 215.955 L 342.846 252.455 C 331.634 269.684 325.471 289.236 329.471 293.736 C 334.471 297.736 354.356 295.298 367.346 291.455 L 363.046 313.205 C 331.661 320.171 311.096 319.181 305.471 312.205 C 297.971 304.205 317.721 230.705 335.346 215.955 Z " fill="rgb(60,99,130)"/><path d=" M 501.221 239.83 L 508.166 190.755 C 513.721 190.205 525.977 232.15 532.409 249.705 C 544.783 283.476 550.647 307.91 547.641 312.205 C 541.587 319.571 511.846 316.955 468.346 297.616 L 479.846 283.955 C 498.009 291.051 512.596 294.58 516.846 291.455 C 519.846 289.08 521.471 274.455 501.221 239.83 Z " fill="rgb(60,99,130)"/><path d=" M 353.983 207.705 C 348.57 208.736 342.956 210.56 337.11 213.147 C 336.536 213.34 335.965 213.537 335.396 213.735 C 331.121 251.052 346.221 342.205 358.346 353.205 C 386.025 350.619 405.015 324.609 415.346 280.205 C 424.565 321.648 444.055 349.805 473.846 360.705 C 491.744 355.083 498.244 274.621 509.134 192.317 C 502.685 190.52 495.079 190.009 486.286 190.755 Q 474.096 217.705 460.846 237.893 C 438.346 263.955 428.19 275.481 416.929 276.955 C 406.895 272.628 400.115 265.746 391.596 259.33 C 387.775 256.453 379.364 248.13 375.846 244.83 Q 365.346 230.83 353.983 207.705 Z " fill="rgb(60,99,130)"/><path d=" M 510.346 193.705 C 537.904 264.833 549.414 304.427 544.846 310.955 C 539.956 316.903 522.395 315.155 492.109 305.674 C 485.396 337.005 479.318 354.68 473.846 358.705 C 444.055 347.805 427.815 319.523 418.596 278.08 C 418.606 278.07 412.868 278.799 412.772 278.872 C 402.183 319.81 384.889 348.225 358.346 350.705 C 354.25 345.201 350.28 333.147 346.422 314.522 L 346.422 314.522 C 325.741 317.594 312.246 316.412 307.846 310.955 C 300.35 302.96 318.338 235.363 334.83 216.315 C 334.839 216.218 335.335 215.8 335.346 215.705 C 386.371 197.94 444.715 190.617 510.346 193.705 Z  M 344.266 207.705 C 382.846 195.955 426.483 188.485 471.897 187.33 C 475.142 187.248 505.741 186.148 512.073 189.83 C 516.111 192.178 540.963 263.083 547.641 288.779 C 549.361 295.397 553.7 310.745 546.346 315.58 Q 534.138 323.606 495.679 310.955 Q 493.285 323.09 492.109 327.58 C 489.258 338.469 485.45 353.895 477.721 362.33 C 473.2 367.263 460.831 356.995 457.853 354.887 C 435.146 338.813 424.49 317.946 415.316 292.225 C 415.316 292.225 412.772 300.331 412.772 300.331 C 407.894 314.346 401.324 327.91 390.671 338.465 C 383.083 345.983 374.81 352.832 364.346 354.887 C 357.346 355.955 355.346 354.705 352.096 348.557 C 347.682 339.346 344.601 317.856 344.266 317.865 C 327.221 318.955 311.471 321.205 306.221 315.58 C 299.569 309.616 301.949 300.815 303.221 291.455 C 304.492 282.095 314.994 236.08 332.392 214.815 C 333.969 212.769 337.937 210.409 344.266 207.705 Z " fill-rule="evenodd" fill="rgb(0,0,0)"/><path d=" M 503.097 247.778 C 507.296 257.02 519.424 277.7 515.221 288.779 Q 513.431 293.496 499.596 289.143 C 500.72 280.881 501.897 267.103 503.097 247.778 L 503.097 247.778 L 503.097 247.778 Z  M 505.471 201.08 L 505.846 216.955 L 504.596 239.83 C 510.675 252.548 523.564 274.387 520.637 290.541 C 519.344 297.679 506.899 295.761 498.846 293.363 Q 498.496 293.259 495.458 310.955 L 492.109 305.674 Q 495.45 287.355 496.221 281.018 C 496.991 274.68 498.07 252.874 500.221 237.893 C 502.191 222.513 502.285 215.168 505.471 201.08 Z " fill-rule="evenodd" fill="rgb(0,0,0)"/><path d=" M 335.189 218.361 C 334.869 222.713 334.057 226.282 333.814 232.564 C 333.177 246.482 333.539 262.097 333.814 265.861 C 327.739 279.852 325.932 289.116 327.643 294.717 Q 328.298 296.863 339.686 297.329 L 344.266 317.705 L 346.422 314.522 L 343.221 297.062 L 336.439 264.049 C 335.888 260.447 335.398 246.808 335.189 218.361 Z  M 334.627 271.486 C 330.658 279.752 329.971 286.83 330.221 292.225 C 332.172 293.586 335.674 293.768 338.986 293.736 Q 334.627 271.486 334.627 271.486 Z " fill-rule="evenodd" fill="rgb(0,0,0)"/><path d=" M 486.286 192.805 C 482.096 205.455 467.846 231.705 456.096 246.503 C 444.346 261.301 427.713 277.963 416.929 280.33 C 416.576 280.346 414.943 280.801 414.03 280.33 C 405.524 275.939 384.496 257.176 376.296 246.503 Q 368.096 235.83 352.766 209.865 L 354.846 207.705 C 360.846 219.58 373.596 239.08 381.346 248.58 C 389.096 258.08 401.139 266.146 415.316 274.33 C 428.276 272.127 439.762 258.084 452.429 244.27 C 465.096 230.455 479.346 204.205 484.096 190.755 L 486.286 192.805 Z " fill="rgb(0,0,0)"/></g><g><path d=" M 476.346 198.205 L 457.846 206.705 L 433.965 215.955 L 399.981 221.55 L 431.346 244.705 L 476.346 198.205 Z  M 374.596 215.955 L 359.346 213.705 L 382.951 242.705 L 400.152 221.465 L 374.596 215.955 Z " fill-rule="evenodd" fill="rgb(128,128,128)"/><path d=" M 519.596 114.974 C 529.59 90.767 551.016 72.421 567.413 74.033 C 583.81 75.645 589.008 96.607 579.015 120.814 C 569.021 145.022 547.595 163.367 531.198 161.756 C 514.801 160.144 509.602 139.182 519.596 114.974 Z " fill="rgb(72,55,55)"/><path d=" M 568.998 73.021 C 559.109 72.08 548.047 76.993 538.579 84.85 C 529.11 92.707 520.847 103.65 515.57 116.038 C 510.293 128.425 508.954 140.026 511.251 149.004 C 513.549 157.981 519.725 164.538 529.613 165.48 C 539.502 166.422 553.113 160.475 562.581 152.618 C 572.05 144.761 577.764 134.852 583.041 122.464 C 588.318 110.077 589.656 98.474 587.359 89.497 C 585.061 80.519 578.886 73.963 568.998 73.021 L 568.998 73.021 Z  M 568.535 75.044 C 575.054 75.665 580.132 82.3 582.034 89.732 C 583.935 97.164 579.678 111.846 574.988 121.697 C 571.007 130.058 565.538 136.937 557.7 143.441 C 549.862 149.945 539.303 150.761 532.784 150.14 C 526.264 149.519 521.638 143.566 519.736 136.134 C 517.834 128.703 518.898 127.893 523.622 116.805 C 528.345 105.716 535.786 91.299 543.623 84.795 C 551.461 78.291 562.015 74.423 568.535 75.044 L 568.535 75.044 Z " fill="rgb(26,26,26)"/><path d=" M 310.767 168.922 C 287.476 119.883 316.535 56.573 375.618 27.631 C 434.701 -1.31 501.578 15.007 524.868 64.046 C 548.159 113.085 519.1 176.395 460.017 205.336 C 400.934 234.278 334.057 217.961 310.767 168.922 Z " fill="rgb(233,198,175)"/><path d=" M 404.787 93.584 C 370.702 93.601 337.123 98.282 306.888 107.233 C 303.585 128.149 304.924 149.721 310.766 169.699 C 327.096 198.955 350.096 208.955 378.252 217.455 C 407.096 221.955 442.096 214.455 460.016 205.556 C 495.277 194.72 522.818 160.792 531.427 117.582 C 494.844 102.051 450.438 93.636 404.787 93.584 L 404.787 93.584 Z " fill="rgb(72,55,55)"/><path d=" M 383.897 60.012 C 383.897 60.012 381.293 60.287 379.986 60.78 C 372.783 63.498 367.515 72.585 368.219 81.077 C 368.923 89.568 375.332 94.247 382.534 91.53 C 385.062 90.574 387.463 88.773 389.445 86.346 C 387.065 87.492 384.375 88.166 382.252 88.13 C 376.257 88.028 371.651 86.601 371.103 79.988 C 370.555 73.374 374.658 64.718 380.268 62.602 C 382.872 61.633 383.897 60.012 383.897 60.012 L 383.897 60.012 Z " fill="rgb(0,0,0)"/><path d=" M 345.729 75.543 C 345.419 69.886 347.745 63.822 350.919 62.011 C 354.094 60.2 356.923 63.323 357.233 68.981 C 357.543 74.639 355.218 80.702 352.043 82.513 C 348.868 84.324 346.039 81.201 345.729 75.543 Z " fill="rgb(0,0,0)"/><path d=" M 417.575 74.426 C 417.221 67.972 419.874 61.056 423.495 58.99 C 427.116 56.925 430.343 60.487 430.696 66.94 C 431.05 73.394 428.397 80.31 424.776 82.376 C 421.155 84.441 417.928 80.879 417.575 74.426 Z " fill="rgb(0,0,0)"/><path d=" M 373.903 27.019 C 313.21 56.293 282.77 120.744 307.211 171.415 C 331.651 222.086 401.039 238.386 461.732 209.112 C 522.426 179.837 552.865 115.387 528.425 64.716 C 503.985 14.045 434.597 -2.255 373.903 27.019 Z  M 377.334 29.394 C 424.268 6.756 475.659 13.084 505.049 42.285 C 511.698 48.892 517.222 59.666 521.312 68.147 C 543.484 114.114 515.853 174.24 458.302 201.999 C 431.163 215.089 402.885 216.912 378.252 212.032 C 350.647 206.564 327.62 192.275 315.903 167.984 C 303.492 142.252 305.435 113.816 317.261 85.639 C 329.303 56.947 351.999 41.613 377.334 29.394 L 377.334 29.394 Z " fill-rule="evenodd" fill="rgb(26,26,26)"/><path d=" M 333.464 116.736 C 333.464 116.736 332.375 119.781 331.999 121.295 C 326.122 145.269 351.303 167.151 385.658 164.44 C 420.013 161.728 452.112 135.451 457.99 111.477 C 458.338 109.964 458.691 106.978 458.691 106.978 C 433.399 120.914 396.138 125.644 366.825 125.842 C 337.512 126.039 333.464 116.736 333.464 116.736 L 333.464 116.736 Z " fill="rgb(255,255,255)"/></g></g><g transform="matrix(1.129,0,0,1.129,497.726,324.374)"><text transform="matrix(1,0,0,1,0,19.9)" style="font-family:'Sintony';font-weight:700;font-size:20px;font-style:normal;font-variant-ligatures:none;fill:#60798A;stroke:none;">Geek</text></g></g></svg>